  0
SECTION
  2
HEADER
  9
$ANGBASE
  50
0.0
  9
$ANGDIR
  70
1
  9
$MEASUREMENT
  70
1
  0
ENDSEC
  0
SECTION
  2
TABLES
  0
TABLE
  2
LTYPE
  70
4
  0
LTYPE
  5
40F
  2
CONTINUOUS
  70
0
  3
Solid line
  72
65
  73
0
  40
0.0
  0
LTYPE
  5
410
  2
DASHDOT
 70
0
  3
Dash Dot ____ _ ____ _
 72
65
 73
4
 40
2.0
 49
1.25
 49
-0.25
 49
0.25
 49
-0.25
  0
LTYPE
  5
411
  2
DASHED
 70
0
  3
Dashed __ __ __ __ __
 72
65
 73
2
 40
0.75
 49
0.5
 49
-0.25
  0
LTYPE
  5
43B
  2
DOTTED
 70
0
  3
Dotted .  .  .  .
 72
65
 73
2
 40
0.2
 49
0.0
 49
-0.2
  0
ENDTAB
  0
TABLE
  2
STYLE
  70
4
  0
STYLE
  2
KICAD
  70
0
  40
0
  41
1
  42
1
  50
0
  71
0
  3
isocp.shx
  0
STYLE
  2
KICADB
  70
0
  40
0
  41
1
  42
1
  50
0
  71
0
  3
isocp.shx
  0
STYLE
  2
KICADI
  70
0
  40
0
  41
1
  42
1
  50
15
  71
0
  3
isocp.shx
  0
STYLE
  2
KICADBI
  70
0
  40
0
  41
1
  42
1
  50
15
  71
0
  3
isocp.shx
  0
ENDTAB
  0
TABLE
  2
LAYER
  70
1
  0
LAYER
  2
BLACK
  70
0
  62
7
  6
CONTINUOUS
  0
ENDTAB
  0
ENDSEC
  0
SECTION
  2
ENTITIES
0
LINE
8
BLACK
6
CONTINUOUS
10
59.2
20
-0.003
11
59.2
21
39.497
0
CIRCLE
8
BLACK
10
52.7
20
30.247
40
0.9
0
LINE
8
BLACK
6
CONTINUOUS
10
59.2
20
39.497
11
0
21
39.497
0
CIRCLE
8
BLACK
10
26.7
20
30.247
40
0.9
0
LINE
8
BLACK
6
CONTINUOUS
10
0
20
39.497
11
0
21
-0.003
0
LINE
8
BLACK
6
CONTINUOUS
10
0
20
-0.003
11
59.2
21
-0.003
0
LINE
8
BLACK
6
CONTINUOUS
10
28.2016
20
35.4951
11
51.1987
21
35.4951
0
LINE
8
BLACK
6
CONTINUOUS
10
51.1987
20
35.4951
11
51.1987
21
24.9918
0
LINE
8
BLACK
6
CONTINUOUS
10
51.1987
20
24.9918
11
28.2016
21
24.9918
0
LINE
8
BLACK
6
CONTINUOUS
10
28.2016
20
24.9918
11
28.2016
21
35.4951
0
LINE
8
BLACK
6
CONTINUOUS
10
28.2016
20
35.4951
11
51.1987
21
35.4951
0
LINE
8
BLACK
6
CONTINUOUS
10
51.1987
20
35.4951
11
51.1987
21
24.9918
0
LINE
8
BLACK
6
CONTINUOUS
10
51.1987
20
24.9918
11
28.2016
21
24.9918
0
LINE
8
BLACK
6
CONTINUOUS
10
28.2016
20
24.9918
11
28.2016
21
35.4951
0
LINE
8
BLACK
6
CONTINUOUS
10
2.45119
20
-3.23276
11
2.45119
21
-1.23276
0
LINE
8
BLACK
6
CONTINUOUS
10
2.45119
20
-1.23276
11
2.92738
21
-1.23276
0
LINE
8
BLACK
6
CONTINUOUS
10
2.92738
20
-1.23276
11
3.2131
21
-1.328
0
LINE
8
BLACK
6
CONTINUOUS
10
3.2131
20
-1.328
11
3.40357
21
-1.51848
0
LINE
8
BLACK
6
CONTINUOUS
10
3.40357
20
-1.51848
11
3.49881
21
-1.70895
0
LINE
8
BLACK
6
CONTINUOUS
10
3.49881
20
-1.70895
11
3.59405
21
-2.0899
0
LINE
8
BLACK
6
CONTINUOUS
10
3.59405
20
-2.0899
11
3.59405
21
-2.37562
0
LINE
8
BLACK
6
CONTINUOUS
10
3.59405
20
-2.37562
11
3.49881
21
-2.75657
0
LINE
8
BLACK
6
CONTINUOUS
10
3.49881
20
-2.75657
11
3.40357
21
-2.94705
0
LINE
8
BLACK
6
CONTINUOUS
10
3.40357
20
-2.94705
11
3.2131
21
-3.13752
0
LINE
8
BLACK
6
CONTINUOUS
10
3.2131
20
-3.13752
11
2.92738
21
-3.23276
0
LINE
8
BLACK
6
CONTINUOUS
10
2.92738
20
-3.23276
11
2.45119
21
-3.23276
0
LINE
8
BLACK
6
CONTINUOUS
10
4.45119
20
-3.23276
11
4.45119
21
-1.89943
0
LINE
8
BLACK
6
CONTINUOUS
10
4.45119
20
-2.28038
11
4.54643
21
-2.0899
0
LINE
8
BLACK
6
CONTINUOUS
10
4.54643
20
-2.0899
11
4.64167
21
-1.99467
0
LINE
8
BLACK
6
CONTINUOUS
10
4.64167
20
-1.99467
11
4.83214
21
-1.89943
0
LINE
8
BLACK
6
CONTINUOUS
10
4.83214
20
-1.89943
11
5.02262
21
-1.89943
0
LINE
8
BLACK
6
CONTINUOUS
10
5.68928
20
-3.23276
11
5.68928
21
-1.89943
0
LINE
8
BLACK
6
CONTINUOUS
10
5.68928
20
-1.23276
11
5.59405
21
-1.328
0
LINE
8
BLACK
6
CONTINUOUS
10
5.59405
20
-1.328
11
5.68928
21
-1.42324
0
LINE
8
BLACK
6
CONTINUOUS
10
5.68928
20
-1.42324
11
5.78452
21
-1.328
0
LINE
8
BLACK
6
CONTINUOUS
10
5.78452
20
-1.328
11
5.68928
21
-1.23276
0
LINE
8
BLACK
6
CONTINUOUS
10
5.68928
20
-1.23276
11
5.68928
21
-1.42324
0
LINE
8
BLACK
6
CONTINUOUS
10
6.92738
20
-3.23276
11
6.7369
21
-3.13752
0
LINE
8
BLACK
6
CONTINUOUS
10
6.7369
20
-3.13752
11
6.64167
21
-2.94705
0
LINE
8
BLACK
6
CONTINUOUS
10
6.64167
20
-2.94705
11
6.64167
21
-1.23276
0
LINE
8
BLACK
6
CONTINUOUS
10
7.975
20
-3.23276
11
7.78452
21
-3.13752
0
LINE
8
BLACK
6
CONTINUOUS
10
7.78452
20
-3.13752
11
7.68928
21
-2.94705
0
LINE
8
BLACK
6
CONTINUOUS
10
7.68928
20
-2.94705
11
7.68928
21
-1.23276
0
LINE
8
BLACK
6
CONTINUOUS
10
10.2607
20
-3.23276
11
10.2607
21
-1.23276
0
LINE
8
BLACK
6
CONTINUOUS
10
10.2607
20
-1.23276
11
10.9274
21
-2.66133
0
LINE
8
BLACK
6
CONTINUOUS
10
10.9274
20
-2.66133
11
11.594
21
-1.23276
0
LINE
8
BLACK
6
CONTINUOUS
10
11.594
20
-1.23276
11
11.594
21
-3.23276
0
LINE
8
BLACK
6
CONTINUOUS
10
13.4036
20
-3.23276
11
13.4036
21
-2.18514
0
LINE
8
BLACK
6
CONTINUOUS
10
13.4036
20
-2.18514
11
13.3083
21
-1.99467
0
LINE
8
BLACK
6
CONTINUOUS
10
13.3083
20
-1.99467
11
13.1179
21
-1.89943
0
LINE
8
BLACK
6
CONTINUOUS
10
13.1179
20
-1.89943
11
12.7369
21
-1.89943
0
LINE
8
BLACK
6
CONTINUOUS
10
12.7369
20
-1.89943
11
12.5464
21
-1.99467
0
LINE
8
BLACK
6
CONTINUOUS
10
13.4036
20
-3.13752
11
13.2131
21
-3.23276
0
LINE
8
BLACK
6
CONTINUOUS
10
13.2131
20
-3.23276
11
12.7369
21
-3.23276
0
LINE
8
BLACK
6
CONTINUOUS
10
12.7369
20
-3.23276
11
12.5464
21
-3.13752
0
LINE
8
BLACK
6
CONTINUOUS
10
12.5464
20
-3.13752
11
12.4512
21
-2.94705
0
LINE
8
BLACK
6
CONTINUOUS
10
12.4512
20
-2.94705
11
12.4512
21
-2.75657
0
LINE
8
BLACK
6
CONTINUOUS
10
12.4512
20
-2.75657
11
12.5464
21
-2.56609
0
LINE
8
BLACK
6
CONTINUOUS
10
12.5464
20
-2.56609
11
12.7369
21
-2.47086
0
LINE
8
BLACK
6
CONTINUOUS
10
12.7369
20
-2.47086
11
13.2131
21
-2.47086
0
LINE
8
BLACK
6
CONTINUOUS
10
13.2131
20
-2.47086
11
13.4036
21
-2.37562
0
LINE
8
BLACK
6
CONTINUOUS
10
14.356
20
-1.89943
11
14.356
21
-3.89943
0
LINE
8
BLACK
6
CONTINUOUS
10
14.356
20
-1.99467
11
14.5464
21
-1.89943
0
LINE
8
BLACK
6
CONTINUOUS
10
14.5464
20
-1.89943
11
14.9274
21
-1.89943
0
LINE
8
BLACK
6
CONTINUOUS
10
14.9274
20
-1.89943
11
15.1179
21
-1.99467
0
LINE
8
BLACK
6
CONTINUOUS
10
15.1179
20
-1.99467
11
15.2131
21
-2.0899
0
LINE
8
BLACK
6
CONTINUOUS
10
15.2131
20
-2.0899
11
15.3083
21
-2.28038
0
LINE
8
BLACK
6
CONTINUOUS
10
15.3083
20
-2.28038
11
15.3083
21
-2.85181
0
LINE
8
BLACK
6
CONTINUOUS
10
15.3083
20
-2.85181
11
15.2131
21
-3.04228
0
LINE
8
BLACK
6
CONTINUOUS
10
15.2131
20
-3.04228
11
15.1179
21
-3.13752
0
LINE
8
BLACK
6
CONTINUOUS
10
15.1179
20
-3.13752
11
14.9274
21
-3.23276
0
LINE
8
BLACK
6
CONTINUOUS
10
14.9274
20
-3.23276
11
14.5464
21
-3.23276
0
LINE
8
BLACK
6
CONTINUOUS
10
14.5464
20
-3.23276
11
14.356
21
-3.13752
0
LINE
8
BLACK
6
CONTINUOUS
10
16.1655
20
-3.04228
11
16.2607
21
-3.13752
0
LINE
8
BLACK
6
CONTINUOUS
10
16.2607
20
-3.13752
11
16.1655
21
-3.23276
0
LINE
8
BLACK
6
CONTINUOUS
10
16.1655
20
-3.23276
11
16.0702
21
-3.13752
0
LINE
8
BLACK
6
CONTINUOUS
10
16.0702
20
-3.13752
11
16.1655
21
-3.04228
0
LINE
8
BLACK
6
CONTINUOUS
10
16.1655
20
-3.04228
11
16.1655
21
-3.23276
0
LINE
8
BLACK
6
CONTINUOUS
10
16.1655
20
-1.99467
11
16.2607
21
-2.0899
0
LINE
8
BLACK
6
CONTINUOUS
10
16.2607
20
-2.0899
11
16.1655
21
-2.18514
0
LINE
8
BLACK
6
CONTINUOUS
10
16.1655
20
-2.18514
11
16.0702
21
-2.0899
0
LINE
8
BLACK
6
CONTINUOUS
10
16.0702
20
-2.0899
11
16.1655
21
-1.99467
0
LINE
8
BLACK
6
CONTINUOUS
10
16.1655
20
-1.99467
11
16.1655
21
-2.18514
  0
ENDSEC
  0
EOF
