  0
SECTION
  2
HEADER
  9
$ANGBASE
  50
0.0
  9
$ANGDIR
  70
1
  9
$MEASUREMENT
  70
1
  0
ENDSEC
  0
SECTION
  2
TABLES
  0
TABLE
  2
LTYPE
  70
4
  0
LTYPE
  5
40F
  2
CONTINUOUS
  70
0
  3
Solid line
  72
65
  73
0
  40
0.0
  0
LTYPE
  5
410
  2
DASHDOT
 70
0
  3
Dash Dot ____ _ ____ _
 72
65
 73
4
 40
2.0
 49
1.25
 49
-0.25
 49
0.25
 49
-0.25
  0
LTYPE
  5
411
  2
DASHED
 70
0
  3
Dashed __ __ __ __ __
 72
65
 73
2
 40
0.75
 49
0.5
 49
-0.25
  0
LTYPE
  5
43B
  2
DOTTED
 70
0
  3
Dotted .  .  .  .
 72
65
 73
2
 40
0.2
 49
0.0
 49
-0.2
  0
ENDTAB
  0
TABLE
  2
STYLE
  70
4
  0
STYLE
  2
KICAD
  70
0
  40
0
  41
1
  42
1
  50
0
  71
0
  3
isocp.shx
  0
STYLE
  2
KICADB
  70
0
  40
0
  41
1
  42
1
  50
0
  71
0
  3
isocp.shx
  0
STYLE
  2
KICADI
  70
0
  40
0
  41
1
  42
1
  50
15
  71
0
  3
isocp.shx
  0
STYLE
  2
KICADBI
  70
0
  40
0
  41
1
  42
1
  50
15
  71
0
  3
isocp.shx
  0
ENDTAB
  0
TABLE
  2
LAYER
  70
1
  0
LAYER
  2
BLACK
  70
0
  62
7
  6
CONTINUOUS
  0
ENDTAB
  0
ENDSEC
  0
SECTION
  2
ENTITIES
0
LINE
8
BLACK
6
CONTINUOUS
10
59.2
20
-0.003
11
59.2
21
39.497
0
CIRCLE
8
BLACK
10
52.7
20
30.247
40
0.9
0
LINE
8
BLACK
6
CONTINUOUS
10
59.2
20
39.497
11
0
21
39.497
0
CIRCLE
8
BLACK
10
26.7
20
30.247
40
0.9
0
LINE
8
BLACK
6
CONTINUOUS
10
0
20
39.497
11
0
21
-0.003
0
LINE
8
BLACK
6
CONTINUOUS
10
0
20
-0.003
11
59.2
21
-0.003
0
LINE
8
BLACK
6
CONTINUOUS
10
28.2016
20
35.4951
11
51.1987
21
35.4951
0
LINE
8
BLACK
6
CONTINUOUS
10
51.1987
20
35.4951
11
51.1987
21
24.9918
0
LINE
8
BLACK
6
CONTINUOUS
10
51.1987
20
24.9918
11
28.2016
21
24.9918
0
LINE
8
BLACK
6
CONTINUOUS
10
28.2016
20
24.9918
11
28.2016
21
35.4951
0
LINE
8
BLACK
6
CONTINUOUS
10
28.2016
20
35.4951
11
51.1987
21
35.4951
0
LINE
8
BLACK
6
CONTINUOUS
10
51.1987
20
35.4951
11
51.1987
21
24.9918
0
LINE
8
BLACK
6
CONTINUOUS
10
51.1987
20
24.9918
11
28.2016
21
24.9918
0
LINE
8
BLACK
6
CONTINUOUS
10
28.2016
20
24.9918
11
28.2016
21
35.4951
0
LINE
8
BLACK
6
CONTINUOUS
10
40.313
20
6.296
11
40.713
21
5.896
0
LINE
8
BLACK
6
CONTINUOUS
10
40.713
20
6.296
11
40.313
21
5.896
0
LINE
8
BLACK
6
CONTINUOUS
10
45.139
20
16.456
11
45.539
21
16.056
0
LINE
8
BLACK
6
CONTINUOUS
10
45.539
20
16.456
11
45.139
21
16.056
0
LINE
8
BLACK
6
CONTINUOUS
10
47.679
20
22.044
11
48.079
21
21.644
0
LINE
8
BLACK
6
CONTINUOUS
10
48.079
20
22.044
11
47.679
21
21.644
0
CIRCLE
8
BLACK
10
44.1991
20
8.1963
40
0.375
0
CIRCLE
8
BLACK
10
46.1991
20
8.1963
40
0.375
0
CIRCLE
8
BLACK
10
48.1991
20
8.1963
40
0.375
0
CIRCLE
8
BLACK
10
50.1991
20
8.1963
40
0.375
0
LINE
8
BLACK
6
CONTINUOUS
10
11.21
20
18.0435
11
11.21
21
15.9435
0
LINE
8
BLACK
6
CONTINUOUS
10
10.16
20
16.9935
11
12.26
21
16.9935
0
LINE
8
BLACK
6
CONTINUOUS
10
16.3771
20
18.052
11
16.3771
21
15.952
0
LINE
8
BLACK
6
CONTINUOUS
10
15.3271
20
17.002
11
17.4271
21
17.002
0
LINE
8
BLACK
6
CONTINUOUS
10
21.5002
20
18.044
11
21.5002
21
15.944
0
LINE
8
BLACK
6
CONTINUOUS
10
20.4502
20
16.994
11
22.5502
21
16.994
0
LINE
8
BLACK
6
CONTINUOUS
10
11.9538
20
7.47717
11
11.9538
21
9.03282
0
LINE
8
BLACK
6
CONTINUOUS
10
11.9538
20
9.03282
11
10.3982
21
9.03282
0
LINE
8
BLACK
6
CONTINUOUS
10
10.3982
20
9.03282
11
10.3982
21
7.47717
0
LINE
8
BLACK
6
CONTINUOUS
10
10.3982
20
7.47717
11
11.9538
21
7.47717
0
LINE
8
BLACK
6
CONTINUOUS
10
18.6848
20
7.35017
11
18.6848
21
8.90583
0
LINE
8
BLACK
6
CONTINUOUS
10
18.6848
20
8.90583
11
17.1292
21
8.90583
0
LINE
8
BLACK
6
CONTINUOUS
10
17.1292
20
8.90583
11
17.1292
21
7.35017
0
LINE
8
BLACK
6
CONTINUOUS
10
17.1292
20
7.35017
11
18.6848
21
7.35017
0
LINE
8
BLACK
6
CONTINUOUS
10
2.45119
20
-3.23276
11
2.45119
21
-1.23276
0
LINE
8
BLACK
6
CONTINUOUS
10
2.45119
20
-1.23276
11
2.92738
21
-1.23276
0
LINE
8
BLACK
6
CONTINUOUS
10
2.92738
20
-1.23276
11
3.2131
21
-1.328
0
LINE
8
BLACK
6
CONTINUOUS
10
3.2131
20
-1.328
11
3.40357
21
-1.51848
0
LINE
8
BLACK
6
CONTINUOUS
10
3.40357
20
-1.51848
11
3.49881
21
-1.70895
0
LINE
8
BLACK
6
CONTINUOUS
10
3.49881
20
-1.70895
11
3.59405
21
-2.0899
0
LINE
8
BLACK
6
CONTINUOUS
10
3.59405
20
-2.0899
11
3.59405
21
-2.37562
0
LINE
8
BLACK
6
CONTINUOUS
10
3.59405
20
-2.37562
11
3.49881
21
-2.75657
0
LINE
8
BLACK
6
CONTINUOUS
10
3.49881
20
-2.75657
11
3.40357
21
-2.94705
0
LINE
8
BLACK
6
CONTINUOUS
10
3.40357
20
-2.94705
11
3.2131
21
-3.13752
0
LINE
8
BLACK
6
CONTINUOUS
10
3.2131
20
-3.13752
11
2.92738
21
-3.23276
0
LINE
8
BLACK
6
CONTINUOUS
10
2.92738
20
-3.23276
11
2.45119
21
-3.23276
0
LINE
8
BLACK
6
CONTINUOUS
10
4.45119
20
-3.23276
11
4.45119
21
-1.89943
0
LINE
8
BLACK
6
CONTINUOUS
10
4.45119
20
-2.28038
11
4.54643
21
-2.0899
0
LINE
8
BLACK
6
CONTINUOUS
10
4.54643
20
-2.0899
11
4.64167
21
-1.99467
0
LINE
8
BLACK
6
CONTINUOUS
10
4.64167
20
-1.99467
11
4.83214
21
-1.89943
0
LINE
8
BLACK
6
CONTINUOUS
10
4.83214
20
-1.89943
11
5.02262
21
-1.89943
0
LINE
8
BLACK
6
CONTINUOUS
10
5.68928
20
-3.23276
11
5.68928
21
-1.89943
0
LINE
8
BLACK
6
CONTINUOUS
10
5.68928
20
-1.23276
11
5.59405
21
-1.328
0
LINE
8
BLACK
6
CONTINUOUS
10
5.59405
20
-1.328
11
5.68928
21
-1.42324
0
LINE
8
BLACK
6
CONTINUOUS
10
5.68928
20
-1.42324
11
5.78452
21
-1.328
0
LINE
8
BLACK
6
CONTINUOUS
10
5.78452
20
-1.328
11
5.68928
21
-1.23276
0
LINE
8
BLACK
6
CONTINUOUS
10
5.68928
20
-1.23276
11
5.68928
21
-1.42324
0
LINE
8
BLACK
6
CONTINUOUS
10
6.92738
20
-3.23276
11
6.7369
21
-3.13752
0
LINE
8
BLACK
6
CONTINUOUS
10
6.7369
20
-3.13752
11
6.64167
21
-2.94705
0
LINE
8
BLACK
6
CONTINUOUS
10
6.64167
20
-2.94705
11
6.64167
21
-1.23276
0
LINE
8
BLACK
6
CONTINUOUS
10
7.975
20
-3.23276
11
7.78452
21
-3.13752
0
LINE
8
BLACK
6
CONTINUOUS
10
7.78452
20
-3.13752
11
7.68928
21
-2.94705
0
LINE
8
BLACK
6
CONTINUOUS
10
7.68928
20
-2.94705
11
7.68928
21
-1.23276
0
LINE
8
BLACK
6
CONTINUOUS
10
10.2607
20
-3.23276
11
10.2607
21
-1.23276
0
LINE
8
BLACK
6
CONTINUOUS
10
10.2607
20
-1.23276
11
10.9274
21
-2.66133
0
LINE
8
BLACK
6
CONTINUOUS
10
10.9274
20
-2.66133
11
11.594
21
-1.23276
0
LINE
8
BLACK
6
CONTINUOUS
10
11.594
20
-1.23276
11
11.594
21
-3.23276
0
LINE
8
BLACK
6
CONTINUOUS
10
13.4036
20
-3.23276
11
13.4036
21
-2.18514
0
LINE
8
BLACK
6
CONTINUOUS
10
13.4036
20
-2.18514
11
13.3083
21
-1.99467
0
LINE
8
BLACK
6
CONTINUOUS
10
13.3083
20
-1.99467
11
13.1179
21
-1.89943
0
LINE
8
BLACK
6
CONTINUOUS
10
13.1179
20
-1.89943
11
12.7369
21
-1.89943
0
LINE
8
BLACK
6
CONTINUOUS
10
12.7369
20
-1.89943
11
12.5464
21
-1.99467
0
LINE
8
BLACK
6
CONTINUOUS
10
13.4036
20
-3.13752
11
13.2131
21
-3.23276
0
LINE
8
BLACK
6
CONTINUOUS
10
13.2131
20
-3.23276
11
12.7369
21
-3.23276
0
LINE
8
BLACK
6
CONTINUOUS
10
12.7369
20
-3.23276
11
12.5464
21
-3.13752
0
LINE
8
BLACK
6
CONTINUOUS
10
12.5464
20
-3.13752
11
12.4512
21
-2.94705
0
LINE
8
BLACK
6
CONTINUOUS
10
12.4512
20
-2.94705
11
12.4512
21
-2.75657
0
LINE
8
BLACK
6
CONTINUOUS
10
12.4512
20
-2.75657
11
12.5464
21
-2.56609
0
LINE
8
BLACK
6
CONTINUOUS
10
12.5464
20
-2.56609
11
12.7369
21
-2.47086
0
LINE
8
BLACK
6
CONTINUOUS
10
12.7369
20
-2.47086
11
13.2131
21
-2.47086
0
LINE
8
BLACK
6
CONTINUOUS
10
13.2131
20
-2.47086
11
13.4036
21
-2.37562
0
LINE
8
BLACK
6
CONTINUOUS
10
14.356
20
-1.89943
11
14.356
21
-3.89943
0
LINE
8
BLACK
6
CONTINUOUS
10
14.356
20
-1.99467
11
14.5464
21
-1.89943
0
LINE
8
BLACK
6
CONTINUOUS
10
14.5464
20
-1.89943
11
14.9274
21
-1.89943
0
LINE
8
BLACK
6
CONTINUOUS
10
14.9274
20
-1.89943
11
15.1179
21
-1.99467
0
LINE
8
BLACK
6
CONTINUOUS
10
15.1179
20
-1.99467
11
15.2131
21
-2.0899
0
LINE
8
BLACK
6
CONTINUOUS
10
15.2131
20
-2.0899
11
15.3083
21
-2.28038
0
LINE
8
BLACK
6
CONTINUOUS
10
15.3083
20
-2.28038
11
15.3083
21
-2.85181
0
LINE
8
BLACK
6
CONTINUOUS
10
15.3083
20
-2.85181
11
15.2131
21
-3.04228
0
LINE
8
BLACK
6
CONTINUOUS
10
15.2131
20
-3.04228
11
15.1179
21
-3.13752
0
LINE
8
BLACK
6
CONTINUOUS
10
15.1179
20
-3.13752
11
14.9274
21
-3.23276
0
LINE
8
BLACK
6
CONTINUOUS
10
14.9274
20
-3.23276
11
14.5464
21
-3.23276
0
LINE
8
BLACK
6
CONTINUOUS
10
14.5464
20
-3.23276
11
14.356
21
-3.13752
0
LINE
8
BLACK
6
CONTINUOUS
10
16.1655
20
-3.04228
11
16.2607
21
-3.13752
0
LINE
8
BLACK
6
CONTINUOUS
10
16.2607
20
-3.13752
11
16.1655
21
-3.23276
0
LINE
8
BLACK
6
CONTINUOUS
10
16.1655
20
-3.23276
11
16.0702
21
-3.13752
0
LINE
8
BLACK
6
CONTINUOUS
10
16.0702
20
-3.13752
11
16.1655
21
-3.04228
0
LINE
8
BLACK
6
CONTINUOUS
10
16.1655
20
-3.04228
11
16.1655
21
-3.23276
0
LINE
8
BLACK
6
CONTINUOUS
10
16.1655
20
-1.99467
11
16.2607
21
-2.0899
0
LINE
8
BLACK
6
CONTINUOUS
10
16.2607
20
-2.0899
11
16.1655
21
-2.18514
0
LINE
8
BLACK
6
CONTINUOUS
10
16.1655
20
-2.18514
11
16.0702
21
-2.0899
0
LINE
8
BLACK
6
CONTINUOUS
10
16.0702
20
-2.0899
11
16.1655
21
-1.99467
0
LINE
8
BLACK
6
CONTINUOUS
10
16.1655
20
-1.99467
11
16.1655
21
-2.18514
0
LINE
8
BLACK
6
CONTINUOUS
10
-0.525
20
-6.328
11
-0.125
21
-6.728
0
LINE
8
BLACK
6
CONTINUOUS
10
-0.125
20
-6.328
11
-0.525
21
-6.728
0
LINE
8
BLACK
6
CONTINUOUS
10
2.83214
20
-5.43276
11
3.02262
21
-5.43276
0
LINE
8
BLACK
6
CONTINUOUS
10
3.02262
20
-5.43276
11
3.2131
21
-5.528
0
LINE
8
BLACK
6
CONTINUOUS
10
3.2131
20
-5.528
11
3.30833
21
-5.62324
0
LINE
8
BLACK
6
CONTINUOUS
10
3.30833
20
-5.62324
11
3.40357
21
-5.81371
0
LINE
8
BLACK
6
CONTINUOUS
10
3.40357
20
-5.81371
11
3.49881
21
-6.19467
0
LINE
8
BLACK
6
CONTINUOUS
10
3.49881
20
-6.19467
11
3.49881
21
-6.67086
0
LINE
8
BLACK
6
CONTINUOUS
10
3.49881
20
-6.67086
11
3.40357
21
-7.05181
0
LINE
8
BLACK
6
CONTINUOUS
10
3.40357
20
-7.05181
11
3.30833
21
-7.24228
0
LINE
8
BLACK
6
CONTINUOUS
10
3.30833
20
-7.24228
11
3.2131
21
-7.33752
0
LINE
8
BLACK
6
CONTINUOUS
10
3.2131
20
-7.33752
11
3.02262
21
-7.43276
0
LINE
8
BLACK
6
CONTINUOUS
10
3.02262
20
-7.43276
11
2.83214
21
-7.43276
0
LINE
8
BLACK
6
CONTINUOUS
10
2.83214
20
-7.43276
11
2.64167
21
-7.33752
0
LINE
8
BLACK
6
CONTINUOUS
10
2.64167
20
-7.33752
11
2.54643
21
-7.24228
0
LINE
8
BLACK
6
CONTINUOUS
10
2.54643
20
-7.24228
11
2.45119
21
-7.05181
0
LINE
8
BLACK
6
CONTINUOUS
10
2.45119
20
-7.05181
11
2.35595
21
-6.67086
0
LINE
8
BLACK
6
CONTINUOUS
10
2.35595
20
-6.67086
11
2.35595
21
-6.19467
0
LINE
8
BLACK
6
CONTINUOUS
10
2.35595
20
-6.19467
11
2.45119
21
-5.81371
0
LINE
8
BLACK
6
CONTINUOUS
10
2.45119
20
-5.81371
11
2.54643
21
-5.62324
0
LINE
8
BLACK
6
CONTINUOUS
10
2.54643
20
-5.62324
11
2.64167
21
-5.528
0
LINE
8
BLACK
6
CONTINUOUS
10
2.64167
20
-5.528
11
2.83214
21
-5.43276
0
LINE
8
BLACK
6
CONTINUOUS
10
4.35595
20
-7.24228
11
4.45119
21
-7.33752
0
LINE
8
BLACK
6
CONTINUOUS
10
4.45119
20
-7.33752
11
4.35595
21
-7.43276
0
LINE
8
BLACK
6
CONTINUOUS
10
4.35595
20
-7.43276
11
4.26071
21
-7.33752
0
LINE
8
BLACK
6
CONTINUOUS
10
4.26071
20
-7.33752
11
4.35595
21
-7.24228
0
LINE
8
BLACK
6
CONTINUOUS
10
4.35595
20
-7.24228
11
4.35595
21
-7.43276
0
LINE
8
BLACK
6
CONTINUOUS
10
6.16548
20
-6.09943
11
6.16548
21
-7.43276
0
LINE
8
BLACK
6
CONTINUOUS
10
5.68928
20
-5.33752
11
5.2131
21
-6.76609
0
LINE
8
BLACK
6
CONTINUOUS
10
5.2131
20
-6.76609
11
6.45119
21
-6.76609
0
LINE
8
BLACK
6
CONTINUOUS
10
7.59405
20
-5.43276
11
7.78452
21
-5.43276
0
LINE
8
BLACK
6
CONTINUOUS
10
7.78452
20
-5.43276
11
7.975
21
-5.528
0
LINE
8
BLACK
6
CONTINUOUS
10
7.975
20
-5.528
11
8.07024
21
-5.62324
0
LINE
8
BLACK
6
CONTINUOUS
10
8.07024
20
-5.62324
11
8.16548
21
-5.81371
0
LINE
8
BLACK
6
CONTINUOUS
10
8.16548
20
-5.81371
11
8.26071
21
-6.19467
0
LINE
8
BLACK
6
CONTINUOUS
10
8.26071
20
-6.19467
11
8.26071
21
-6.67086
0
LINE
8
BLACK
6
CONTINUOUS
10
8.26071
20
-6.67086
11
8.16548
21
-7.05181
0
LINE
8
BLACK
6
CONTINUOUS
10
8.16548
20
-7.05181
11
8.07024
21
-7.24228
0
LINE
8
BLACK
6
CONTINUOUS
10
8.07024
20
-7.24228
11
7.975
21
-7.33752
0
LINE
8
BLACK
6
CONTINUOUS
10
7.975
20
-7.33752
11
7.78452
21
-7.43276
0
LINE
8
BLACK
6
CONTINUOUS
10
7.78452
20
-7.43276
11
7.59405
21
-7.43276
0
LINE
8
BLACK
6
CONTINUOUS
10
7.59405
20
-7.43276
11
7.40357
21
-7.33752
0
LINE
8
BLACK
6
CONTINUOUS
10
7.40357
20
-7.33752
11
7.30833
21
-7.24228
0
LINE
8
BLACK
6
CONTINUOUS
10
7.30833
20
-7.24228
11
7.2131
21
-7.05181
0
LINE
8
BLACK
6
CONTINUOUS
10
7.2131
20
-7.05181
11
7.11786
21
-6.67086
0
LINE
8
BLACK
6
CONTINUOUS
10
7.11786
20
-6.67086
11
7.11786
21
-6.19467
0
LINE
8
BLACK
6
CONTINUOUS
10
7.11786
20
-6.19467
11
7.2131
21
-5.81371
0
LINE
8
BLACK
6
CONTINUOUS
10
7.2131
20
-5.81371
11
7.30833
21
-5.62324
0
LINE
8
BLACK
6
CONTINUOUS
10
7.30833
20
-5.62324
11
7.40357
21
-5.528
0
LINE
8
BLACK
6
CONTINUOUS
10
7.40357
20
-5.528
11
7.59405
21
-5.43276
0
LINE
8
BLACK
6
CONTINUOUS
10
9.49881
20
-5.43276
11
9.68928
21
-5.43276
0
LINE
8
BLACK
6
CONTINUOUS
10
9.68928
20
-5.43276
11
9.87976
21
-5.528
0
LINE
8
BLACK
6
CONTINUOUS
10
9.87976
20
-5.528
11
9.975
21
-5.62324
0
LINE
8
BLACK
6
CONTINUOUS
10
9.975
20
-5.62324
11
10.0702
21
-5.81371
0
LINE
8
BLACK
6
CONTINUOUS
10
10.0702
20
-5.81371
11
10.1655
21
-6.19467
0
LINE
8
BLACK
6
CONTINUOUS
10
10.1655
20
-6.19467
11
10.1655
21
-6.67086
0
LINE
8
BLACK
6
CONTINUOUS
10
10.1655
20
-6.67086
11
10.0702
21
-7.05181
0
LINE
8
BLACK
6
CONTINUOUS
10
10.0702
20
-7.05181
11
9.975
21
-7.24228
0
LINE
8
BLACK
6
CONTINUOUS
10
9.975
20
-7.24228
11
9.87976
21
-7.33752
0
LINE
8
BLACK
6
CONTINUOUS
10
9.87976
20
-7.33752
11
9.68928
21
-7.43276
0
LINE
8
BLACK
6
CONTINUOUS
10
9.68928
20
-7.43276
11
9.49881
21
-7.43276
0
LINE
8
BLACK
6
CONTINUOUS
10
9.49881
20
-7.43276
11
9.30833
21
-7.33752
0
LINE
8
BLACK
6
CONTINUOUS
10
9.30833
20
-7.33752
11
9.21309
21
-7.24228
0
LINE
8
BLACK
6
CONTINUOUS
10
9.21309
20
-7.24228
11
9.11786
21
-7.05181
0
LINE
8
BLACK
6
CONTINUOUS
10
9.11786
20
-7.05181
11
9.02262
21
-6.67086
0
LINE
8
BLACK
6
CONTINUOUS
10
9.02262
20
-6.67086
11
9.02262
21
-6.19467
0
LINE
8
BLACK
6
CONTINUOUS
10
9.02262
20
-6.19467
11
9.11786
21
-5.81371
0
LINE
8
BLACK
6
CONTINUOUS
10
9.11786
20
-5.81371
11
9.21309
21
-5.62324
0
LINE
8
BLACK
6
CONTINUOUS
10
9.21309
20
-5.62324
11
9.30833
21
-5.528
0
LINE
8
BLACK
6
CONTINUOUS
10
9.30833
20
-5.528
11
9.49881
21
-5.43276
0
LINE
8
BLACK
6
CONTINUOUS
10
11.0226
20
-7.43276
11
11.0226
21
-6.09943
0
LINE
8
BLACK
6
CONTINUOUS
10
11.0226
20
-6.2899
11
11.1179
21
-6.19467
0
LINE
8
BLACK
6
CONTINUOUS
10
11.1179
20
-6.19467
11
11.3083
21
-6.09943
0
LINE
8
BLACK
6
CONTINUOUS
10
11.3083
20
-6.09943
11
11.594
21
-6.09943
0
LINE
8
BLACK
6
CONTINUOUS
10
11.594
20
-6.09943
11
11.7845
21
-6.19467
0
LINE
8
BLACK
6
CONTINUOUS
10
11.7845
20
-6.19467
11
11.8798
21
-6.38514
0
LINE
8
BLACK
6
CONTINUOUS
10
11.8798
20
-6.38514
11
11.8798
21
-7.43276
0
LINE
8
BLACK
6
CONTINUOUS
10
11.8798
20
-6.38514
11
11.975
21
-6.19467
0
LINE
8
BLACK
6
CONTINUOUS
10
11.975
20
-6.19467
11
12.1655
21
-6.09943
0
LINE
8
BLACK
6
CONTINUOUS
10
12.1655
20
-6.09943
11
12.4512
21
-6.09943
0
LINE
8
BLACK
6
CONTINUOUS
10
12.4512
20
-6.09943
11
12.6417
21
-6.19467
0
LINE
8
BLACK
6
CONTINUOUS
10
12.6417
20
-6.19467
11
12.7369
21
-6.38514
0
LINE
8
BLACK
6
CONTINUOUS
10
12.7369
20
-6.38514
11
12.7369
21
-7.43276
0
LINE
8
BLACK
6
CONTINUOUS
10
13.6893
20
-7.43276
11
13.6893
21
-6.09943
0
LINE
8
BLACK
6
CONTINUOUS
10
13.6893
20
-6.2899
11
13.7845
21
-6.19467
0
LINE
8
BLACK
6
CONTINUOUS
10
13.7845
20
-6.19467
11
13.975
21
-6.09943
0
LINE
8
BLACK
6
CONTINUOUS
10
13.975
20
-6.09943
11
14.2607
21
-6.09943
0
LINE
8
BLACK
6
CONTINUOUS
10
14.2607
20
-6.09943
11
14.4512
21
-6.19467
0
LINE
8
BLACK
6
CONTINUOUS
10
14.4512
20
-6.19467
11
14.5464
21
-6.38514
0
LINE
8
BLACK
6
CONTINUOUS
10
14.5464
20
-6.38514
11
14.5464
21
-7.43276
0
LINE
8
BLACK
6
CONTINUOUS
10
14.5464
20
-6.38514
11
14.6417
21
-6.19467
0
LINE
8
BLACK
6
CONTINUOUS
10
14.6417
20
-6.19467
11
14.8321
21
-6.09943
0
LINE
8
BLACK
6
CONTINUOUS
10
14.8321
20
-6.09943
11
15.1179
21
-6.09943
0
LINE
8
BLACK
6
CONTINUOUS
10
15.1179
20
-6.09943
11
15.3083
21
-6.19467
0
LINE
8
BLACK
6
CONTINUOUS
10
15.3083
20
-6.19467
11
15.4036
21
-6.38514
0
LINE
8
BLACK
6
CONTINUOUS
10
15.4036
20
-6.38514
11
15.4036
21
-7.43276
0
LINE
8
BLACK
6
CONTINUOUS
10
19.3083
20
-5.33752
11
17.594
21
-7.90895
0
LINE
8
BLACK
6
CONTINUOUS
10
21.8798
20
-5.43276
11
22.0702
21
-5.43276
0
LINE
8
BLACK
6
CONTINUOUS
10
22.0702
20
-5.43276
11
22.2607
21
-5.528
0
LINE
8
BLACK
6
CONTINUOUS
10
22.2607
20
-5.528
11
22.356
21
-5.62324
0
LINE
8
BLACK
6
CONTINUOUS
10
22.356
20
-5.62324
11
22.4512
21
-5.81371
0
LINE
8
BLACK
6
CONTINUOUS
10
22.4512
20
-5.81371
11
22.5464
21
-6.19467
0
LINE
8
BLACK
6
CONTINUOUS
10
22.5464
20
-6.19467
11
22.5464
21
-6.67086
0
LINE
8
BLACK
6
CONTINUOUS
10
22.5464
20
-6.67086
11
22.4512
21
-7.05181
0
LINE
8
BLACK
6
CONTINUOUS
10
22.4512
20
-7.05181
11
22.356
21
-7.24228
0
LINE
8
BLACK
6
CONTINUOUS
10
22.356
20
-7.24228
11
22.2607
21
-7.33752
0
LINE
8
BLACK
6
CONTINUOUS
10
22.2607
20
-7.33752
11
22.0702
21
-7.43276
0
LINE
8
BLACK
6
CONTINUOUS
10
22.0702
20
-7.43276
11
21.8798
21
-7.43276
0
LINE
8
BLACK
6
CONTINUOUS
10
21.8798
20
-7.43276
11
21.6893
21
-7.33752
0
LINE
8
BLACK
6
CONTINUOUS
10
21.6893
20
-7.33752
11
21.594
21
-7.24228
0
LINE
8
BLACK
6
CONTINUOUS
10
21.594
20
-7.24228
11
21.4988
21
-7.05181
0
LINE
8
BLACK
6
CONTINUOUS
10
21.4988
20
-7.05181
11
21.4036
21
-6.67086
0
LINE
8
BLACK
6
CONTINUOUS
10
21.4036
20
-6.67086
11
21.4036
21
-6.19467
0
LINE
8
BLACK
6
CONTINUOUS
10
21.4036
20
-6.19467
11
21.4988
21
-5.81371
0
LINE
8
BLACK
6
CONTINUOUS
10
21.4988
20
-5.81371
11
21.594
21
-5.62324
0
LINE
8
BLACK
6
CONTINUOUS
10
21.594
20
-5.62324
11
21.6893
21
-5.528
0
LINE
8
BLACK
6
CONTINUOUS
10
21.6893
20
-5.528
11
21.8798
21
-5.43276
0
LINE
8
BLACK
6
CONTINUOUS
10
23.4036
20
-7.24228
11
23.4988
21
-7.33752
0
LINE
8
BLACK
6
CONTINUOUS
10
23.4988
20
-7.33752
11
23.4036
21
-7.43276
0
LINE
8
BLACK
6
CONTINUOUS
10
23.4036
20
-7.43276
11
23.3083
21
-7.33752
0
LINE
8
BLACK
6
CONTINUOUS
10
23.3083
20
-7.33752
11
23.4036
21
-7.24228
0
LINE
8
BLACK
6
CONTINUOUS
10
23.4036
20
-7.24228
11
23.4036
21
-7.43276
0
LINE
8
BLACK
6
CONTINUOUS
10
24.7369
20
-5.43276
11
24.9274
21
-5.43276
0
LINE
8
BLACK
6
CONTINUOUS
10
24.9274
20
-5.43276
11
25.1179
21
-5.528
0
LINE
8
BLACK
6
CONTINUOUS
10
25.1179
20
-5.528
11
25.2131
21
-5.62324
0
LINE
8
BLACK
6
CONTINUOUS
10
25.2131
20
-5.62324
11
25.3083
21
-5.81371
0
LINE
8
BLACK
6
CONTINUOUS
10
25.3083
20
-5.81371
11
25.4036
21
-6.19467
0
LINE
8
BLACK
6
CONTINUOUS
10
25.4036
20
-6.19467
11
25.4036
21
-6.67086
0
LINE
8
BLACK
6
CONTINUOUS
10
25.4036
20
-6.67086
11
25.3083
21
-7.05181
0
LINE
8
BLACK
6
CONTINUOUS
10
25.3083
20
-7.05181
11
25.2131
21
-7.24228
0
LINE
8
BLACK
6
CONTINUOUS
10
25.2131
20
-7.24228
11
25.1179
21
-7.33752
0
LINE
8
BLACK
6
CONTINUOUS
10
25.1179
20
-7.33752
11
24.9274
21
-7.43276
0
LINE
8
BLACK
6
CONTINUOUS
10
24.9274
20
-7.43276
11
24.7369
21
-7.43276
0
LINE
8
BLACK
6
CONTINUOUS
10
24.7369
20
-7.43276
11
24.5464
21
-7.33752
0
LINE
8
BLACK
6
CONTINUOUS
10
24.5464
20
-7.33752
11
24.4512
21
-7.24228
0
LINE
8
BLACK
6
CONTINUOUS
10
24.4512
20
-7.24228
11
24.356
21
-7.05181
0
LINE
8
BLACK
6
CONTINUOUS
10
24.356
20
-7.05181
11
24.2607
21
-6.67086
0
LINE
8
BLACK
6
CONTINUOUS
10
24.2607
20
-6.67086
11
24.2607
21
-6.19467
0
LINE
8
BLACK
6
CONTINUOUS
10
24.2607
20
-6.19467
11
24.356
21
-5.81371
0
LINE
8
BLACK
6
CONTINUOUS
10
24.356
20
-5.81371
11
24.4512
21
-5.62324
0
LINE
8
BLACK
6
CONTINUOUS
10
24.4512
20
-5.62324
11
24.5464
21
-5.528
0
LINE
8
BLACK
6
CONTINUOUS
10
24.5464
20
-5.528
11
24.7369
21
-5.43276
0
LINE
8
BLACK
6
CONTINUOUS
10
27.3083
20
-7.43276
11
26.1655
21
-7.43276
0
LINE
8
BLACK
6
CONTINUOUS
10
26.7369
20
-7.43276
11
26.7369
21
-5.43276
0
LINE
8
BLACK
6
CONTINUOUS
10
26.7369
20
-5.43276
11
26.5464
21
-5.71848
0
LINE
8
BLACK
6
CONTINUOUS
10
26.5464
20
-5.71848
11
26.356
21
-5.90895
0
LINE
8
BLACK
6
CONTINUOUS
10
26.356
20
-5.90895
11
26.1655
21
-6.00419
0
LINE
8
BLACK
6
CONTINUOUS
10
29.1179
20
-5.43276
11
28.1655
21
-5.43276
0
LINE
8
BLACK
6
CONTINUOUS
10
28.1655
20
-5.43276
11
28.0702
21
-6.38514
0
LINE
8
BLACK
6
CONTINUOUS
10
28.0702
20
-6.38514
11
28.1655
21
-6.2899
0
LINE
8
BLACK
6
CONTINUOUS
10
28.1655
20
-6.2899
11
28.356
21
-6.19467
0
LINE
8
BLACK
6
CONTINUOUS
10
28.356
20
-6.19467
11
28.8321
21
-6.19467
0
LINE
8
BLACK
6
CONTINUOUS
10
28.8321
20
-6.19467
11
29.0226
21
-6.2899
0
LINE
8
BLACK
6
CONTINUOUS
10
29.0226
20
-6.2899
11
29.1179
21
-6.38514
0
LINE
8
BLACK
6
CONTINUOUS
10
29.1179
20
-6.38514
11
29.2131
21
-6.57562
0
LINE
8
BLACK
6
CONTINUOUS
10
29.2131
20
-6.57562
11
29.2131
21
-7.05181
0
LINE
8
BLACK
6
CONTINUOUS
10
29.2131
20
-7.05181
11
29.1179
21
-7.24228
0
LINE
8
BLACK
6
CONTINUOUS
10
29.1179
20
-7.24228
11
29.0226
21
-7.33752
0
LINE
8
BLACK
6
CONTINUOUS
10
29.0226
20
-7.33752
11
28.8321
21
-7.43276
0
LINE
8
BLACK
6
CONTINUOUS
10
28.8321
20
-7.43276
11
28.356
21
-7.43276
0
LINE
8
BLACK
6
CONTINUOUS
10
28.356
20
-7.43276
11
28.1655
21
-7.33752
0
LINE
8
BLACK
6
CONTINUOUS
10
28.1655
20
-7.33752
11
28.0702
21
-7.24228
0
LINE
8
BLACK
6
CONTINUOUS
10
29.8798
20
-5.43276
11
31.2131
21
-5.43276
0
LINE
8
BLACK
6
CONTINUOUS
10
31.2131
20
-5.43276
11
30.356
21
-7.43276
0
LINE
8
BLACK
6
CONTINUOUS
10
31.8798
20
-5.43276
11
31.8798
21
-5.81371
0
LINE
8
BLACK
6
CONTINUOUS
10
32.6417
20
-5.43276
11
32.6417
21
-5.81371
0
LINE
8
BLACK
6
CONTINUOUS
10
35.594
20
-8.19467
11
35.4988
21
-8.09943
0
LINE
8
BLACK
6
CONTINUOUS
10
35.4988
20
-8.09943
11
35.3083
21
-7.81371
0
LINE
8
BLACK
6
CONTINUOUS
10
35.3083
20
-7.81371
11
35.2131
21
-7.62324
0
LINE
8
BLACK
6
CONTINUOUS
10
35.2131
20
-7.62324
11
35.1179
21
-7.33752
0
LINE
8
BLACK
6
CONTINUOUS
10
35.1179
20
-7.33752
11
35.0226
21
-6.86133
0
LINE
8
BLACK
6
CONTINUOUS
10
35.0226
20
-6.86133
11
35.0226
21
-6.48038
0
LINE
8
BLACK
6
CONTINUOUS
10
35.0226
20
-6.48038
11
35.1179
21
-6.00419
0
LINE
8
BLACK
6
CONTINUOUS
10
35.1179
20
-6.00419
11
35.2131
21
-5.71848
0
LINE
8
BLACK
6
CONTINUOUS
10
35.2131
20
-5.71848
11
35.3083
21
-5.528
0
LINE
8
BLACK
6
CONTINUOUS
10
35.3083
20
-5.528
11
35.4988
21
-5.24228
0
LINE
8
BLACK
6
CONTINUOUS
10
35.4988
20
-5.24228
11
35.594
21
-5.14705
0
LINE
8
BLACK
6
CONTINUOUS
10
36.1655
20
-5.43276
11
37.4036
21
-5.43276
0
LINE
8
BLACK
6
CONTINUOUS
10
37.4036
20
-5.43276
11
36.7369
21
-6.19467
0
LINE
8
BLACK
6
CONTINUOUS
10
36.7369
20
-6.19467
11
37.0226
21
-6.19467
0
LINE
8
BLACK
6
CONTINUOUS
10
37.0226
20
-6.19467
11
37.2131
21
-6.2899
0
LINE
8
BLACK
6
CONTINUOUS
10
37.2131
20
-6.2899
11
37.3083
21
-6.38514
0
LINE
8
BLACK
6
CONTINUOUS
10
37.3083
20
-6.38514
11
37.4036
21
-6.57562
0
LINE
8
BLACK
6
CONTINUOUS
10
37.4036
20
-6.57562
11
37.4036
21
-7.05181
0
LINE
8
BLACK
6
CONTINUOUS
10
37.4036
20
-7.05181
11
37.3083
21
-7.24228
0
LINE
8
BLACK
6
CONTINUOUS
10
37.3083
20
-7.24228
11
37.2131
21
-7.33752
0
LINE
8
BLACK
6
CONTINUOUS
10
37.2131
20
-7.33752
11
37.0226
21
-7.43276
0
LINE
8
BLACK
6
CONTINUOUS
10
37.0226
20
-7.43276
11
36.4512
21
-7.43276
0
LINE
8
BLACK
6
CONTINUOUS
10
36.4512
20
-7.43276
11
36.2607
21
-7.33752
0
LINE
8
BLACK
6
CONTINUOUS
10
36.2607
20
-7.33752
11
36.1655
21
-7.24228
0
LINE
8
BLACK
6
CONTINUOUS
10
39.7845
20
-7.43276
11
39.7845
21
-5.43276
0
LINE
8
BLACK
6
CONTINUOUS
10
40.6417
20
-7.43276
11
40.6417
21
-6.38514
0
LINE
8
BLACK
6
CONTINUOUS
10
40.6417
20
-6.38514
11
40.5464
21
-6.19467
0
LINE
8
BLACK
6
CONTINUOUS
10
40.5464
20
-6.19467
11
40.356
21
-6.09943
0
LINE
8
BLACK
6
CONTINUOUS
10
40.356
20
-6.09943
11
40.0702
21
-6.09943
0
LINE
8
BLACK
6
CONTINUOUS
10
40.0702
20
-6.09943
11
39.8798
21
-6.19467
0
LINE
8
BLACK
6
CONTINUOUS
10
39.8798
20
-6.19467
11
39.7845
21
-6.2899
0
LINE
8
BLACK
6
CONTINUOUS
10
41.8798
20
-7.43276
11
41.6893
21
-7.33752
0
LINE
8
BLACK
6
CONTINUOUS
10
41.6893
20
-7.33752
11
41.594
21
-7.24228
0
LINE
8
BLACK
6
CONTINUOUS
10
41.594
20
-7.24228
11
41.4988
21
-7.05181
0
LINE
8
BLACK
6
CONTINUOUS
10
41.4988
20
-7.05181
11
41.4988
21
-6.48038
0
LINE
8
BLACK
6
CONTINUOUS
10
41.4988
20
-6.48038
11
41.594
21
-6.2899
0
LINE
8
BLACK
6
CONTINUOUS
10
41.594
20
-6.2899
11
41.6893
21
-6.19467
0
LINE
8
BLACK
6
CONTINUOUS
10
41.6893
20
-6.19467
11
41.8798
21
-6.09943
0
LINE
8
BLACK
6
CONTINUOUS
10
41.8798
20
-6.09943
11
42.1655
21
-6.09943
0
LINE
8
BLACK
6
CONTINUOUS
10
42.1655
20
-6.09943
11
42.356
21
-6.19467
0
LINE
8
BLACK
6
CONTINUOUS
10
42.356
20
-6.19467
11
42.4512
21
-6.2899
0
LINE
8
BLACK
6
CONTINUOUS
10
42.4512
20
-6.2899
11
42.5464
21
-6.48038
0
LINE
8
BLACK
6
CONTINUOUS
10
42.5464
20
-6.48038
11
42.5464
21
-7.05181
0
LINE
8
BLACK
6
CONTINUOUS
10
42.5464
20
-7.05181
11
42.4512
21
-7.24228
0
LINE
8
BLACK
6
CONTINUOUS
10
42.4512
20
-7.24228
11
42.356
21
-7.33752
0
LINE
8
BLACK
6
CONTINUOUS
10
42.356
20
-7.33752
11
42.1655
21
-7.43276
0
LINE
8
BLACK
6
CONTINUOUS
10
42.1655
20
-7.43276
11
41.8798
21
-7.43276
0
LINE
8
BLACK
6
CONTINUOUS
10
43.6893
20
-7.43276
11
43.4988
21
-7.33752
0
LINE
8
BLACK
6
CONTINUOUS
10
43.4988
20
-7.33752
11
43.4036
21
-7.14705
0
LINE
8
BLACK
6
CONTINUOUS
10
43.4036
20
-7.14705
11
43.4036
21
-5.43276
0
LINE
8
BLACK
6
CONTINUOUS
10
45.2131
20
-7.33752
11
45.0226
21
-7.43276
0
LINE
8
BLACK
6
CONTINUOUS
10
45.0226
20
-7.43276
11
44.6417
21
-7.43276
0
LINE
8
BLACK
6
CONTINUOUS
10
44.6417
20
-7.43276
11
44.4512
21
-7.33752
0
LINE
8
BLACK
6
CONTINUOUS
10
44.4512
20
-7.33752
11
44.356
21
-7.14705
0
LINE
8
BLACK
6
CONTINUOUS
10
44.356
20
-7.14705
11
44.356
21
-6.38514
0
LINE
8
BLACK
6
CONTINUOUS
10
44.356
20
-6.38514
11
44.4512
21
-6.19467
0
LINE
8
BLACK
6
CONTINUOUS
10
44.4512
20
-6.19467
11
44.6417
21
-6.09943
0
LINE
8
BLACK
6
CONTINUOUS
10
44.6417
20
-6.09943
11
45.0226
21
-6.09943
0
LINE
8
BLACK
6
CONTINUOUS
10
45.0226
20
-6.09943
11
45.2131
21
-6.19467
0
LINE
8
BLACK
6
CONTINUOUS
10
45.2131
20
-6.19467
11
45.3083
21
-6.38514
0
LINE
8
BLACK
6
CONTINUOUS
10
45.3083
20
-6.38514
11
45.3083
21
-6.57562
0
LINE
8
BLACK
6
CONTINUOUS
10
45.3083
20
-6.57562
11
44.356
21
-6.76609
0
LINE
8
BLACK
6
CONTINUOUS
10
46.0702
20
-7.33752
11
46.2607
21
-7.43276
0
LINE
8
BLACK
6
CONTINUOUS
10
46.2607
20
-7.43276
11
46.6417
21
-7.43276
0
LINE
8
BLACK
6
CONTINUOUS
10
46.6417
20
-7.43276
11
46.8321
21
-7.33752
0
LINE
8
BLACK
6
CONTINUOUS
10
46.8321
20
-7.33752
11
46.9274
21
-7.14705
0
LINE
8
BLACK
6
CONTINUOUS
10
46.9274
20
-7.14705
11
46.9274
21
-7.05181
0
LINE
8
BLACK
6
CONTINUOUS
10
46.9274
20
-7.05181
11
46.8321
21
-6.86133
0
LINE
8
BLACK
6
CONTINUOUS
10
46.8321
20
-6.86133
11
46.6417
21
-6.76609
0
LINE
8
BLACK
6
CONTINUOUS
10
46.6417
20
-6.76609
11
46.356
21
-6.76609
0
LINE
8
BLACK
6
CONTINUOUS
10
46.356
20
-6.76609
11
46.1655
21
-6.67086
0
LINE
8
BLACK
6
CONTINUOUS
10
46.1655
20
-6.67086
11
46.0702
21
-6.48038
0
LINE
8
BLACK
6
CONTINUOUS
10
46.0702
20
-6.48038
11
46.0702
21
-6.38514
0
LINE
8
BLACK
6
CONTINUOUS
10
46.0702
20
-6.38514
11
46.1655
21
-6.19467
0
LINE
8
BLACK
6
CONTINUOUS
10
46.1655
20
-6.19467
11
46.356
21
-6.09943
0
LINE
8
BLACK
6
CONTINUOUS
10
46.356
20
-6.09943
11
46.6417
21
-6.09943
0
LINE
8
BLACK
6
CONTINUOUS
10
46.6417
20
-6.09943
11
46.8321
21
-6.19467
0
LINE
8
BLACK
6
CONTINUOUS
10
47.594
20
-8.19467
11
47.6893
21
-8.09943
0
LINE
8
BLACK
6
CONTINUOUS
10
47.6893
20
-8.09943
11
47.8798
21
-7.81371
0
LINE
8
BLACK
6
CONTINUOUS
10
47.8798
20
-7.81371
11
47.975
21
-7.62324
0
LINE
8
BLACK
6
CONTINUOUS
10
47.975
20
-7.62324
11
48.0702
21
-7.33752
0
LINE
8
BLACK
6
CONTINUOUS
10
48.0702
20
-7.33752
11
48.1655
21
-6.86133
0
LINE
8
BLACK
6
CONTINUOUS
10
48.1655
20
-6.86133
11
48.1655
21
-6.48038
0
LINE
8
BLACK
6
CONTINUOUS
10
48.1655
20
-6.48038
11
48.0702
21
-6.00419
0
LINE
8
BLACK
6
CONTINUOUS
10
48.0702
20
-6.00419
11
47.975
21
-5.71848
0
LINE
8
BLACK
6
CONTINUOUS
10
47.975
20
-5.71848
11
47.8798
21
-5.528
0
LINE
8
BLACK
6
CONTINUOUS
10
47.8798
20
-5.528
11
47.6893
21
-5.24228
0
LINE
8
BLACK
6
CONTINUOUS
10
47.6893
20
-5.24228
11
47.594
21
-5.14705
0
CIRCLE
8
BLACK
10
-0.5
20
-9.168
40
0.375
0
LINE
8
BLACK
6
CONTINUOUS
10
2.83214
20
-8.07276
11
3.02262
21
-8.07276
0
LINE
8
BLACK
6
CONTINUOUS
10
3.02262
20
-8.07276
11
3.2131
21
-8.168
0
LINE
8
BLACK
6
CONTINUOUS
10
3.2131
20
-8.168
11
3.30833
21
-8.26324
0
LINE
8
BLACK
6
CONTINUOUS
10
3.30833
20
-8.26324
11
3.40357
21
-8.45371
0
LINE
8
BLACK
6
CONTINUOUS
10
3.40357
20
-8.45371
11
3.49881
21
-8.83467
0
LINE
8
BLACK
6
CONTINUOUS
10
3.49881
20
-8.83467
11
3.49881
21
-9.31086
0
LINE
8
BLACK
6
CONTINUOUS
10
3.49881
20
-9.31086
11
3.40357
21
-9.69181
0
LINE
8
BLACK
6
CONTINUOUS
10
3.40357
20
-9.69181
11
3.30833
21
-9.88228
0
LINE
8
BLACK
6
CONTINUOUS
10
3.30833
20
-9.88228
11
3.2131
21
-9.97752
0
LINE
8
BLACK
6
CONTINUOUS
10
3.2131
20
-9.97752
11
3.02262
21
-10.0728
0
LINE
8
BLACK
6
CONTINUOUS
10
3.02262
20
-10.0728
11
2.83214
21
-10.0728
0
LINE
8
BLACK
6
CONTINUOUS
10
2.83214
20
-10.0728
11
2.64167
21
-9.97752
0
LINE
8
BLACK
6
CONTINUOUS
10
2.64167
20
-9.97752
11
2.54643
21
-9.88228
0
LINE
8
BLACK
6
CONTINUOUS
10
2.54643
20
-9.88228
11
2.45119
21
-9.69181
0
LINE
8
BLACK
6
CONTINUOUS
10
2.45119
20
-9.69181
11
2.35595
21
-9.31086
0
LINE
8
BLACK
6
CONTINUOUS
10
2.35595
20
-9.31086
11
2.35595
21
-8.83467
0
LINE
8
BLACK
6
CONTINUOUS
10
2.35595
20
-8.83467
11
2.45119
21
-8.45371
0
LINE
8
BLACK
6
CONTINUOUS
10
2.45119
20
-8.45371
11
2.54643
21
-8.26324
0
LINE
8
BLACK
6
CONTINUOUS
10
2.54643
20
-8.26324
11
2.64167
21
-8.168
0
LINE
8
BLACK
6
CONTINUOUS
10
2.64167
20
-8.168
11
2.83214
21
-8.07276
0
LINE
8
BLACK
6
CONTINUOUS
10
4.35595
20
-9.88228
11
4.45119
21
-9.97752
0
LINE
8
BLACK
6
CONTINUOUS
10
4.45119
20
-9.97752
11
4.35595
21
-10.0728
0
LINE
8
BLACK
6
CONTINUOUS
10
4.35595
20
-10.0728
11
4.26071
21
-9.97752
0
LINE
8
BLACK
6
CONTINUOUS
10
4.26071
20
-9.97752
11
4.35595
21
-9.88228
0
LINE
8
BLACK
6
CONTINUOUS
10
4.35595
20
-9.88228
11
4.35595
21
-10.0728
0
LINE
8
BLACK
6
CONTINUOUS
10
5.11786
20
-8.07276
11
6.45119
21
-8.07276
0
LINE
8
BLACK
6
CONTINUOUS
10
6.45119
20
-8.07276
11
5.59405
21
-10.0728
0
LINE
8
BLACK
6
CONTINUOUS
10
8.16548
20
-8.07276
11
7.2131
21
-8.07276
0
LINE
8
BLACK
6
CONTINUOUS
10
7.2131
20
-8.07276
11
7.11786
21
-9.02514
0
LINE
8
BLACK
6
CONTINUOUS
10
7.11786
20
-9.02514
11
7.2131
21
-8.9299
0
LINE
8
BLACK
6
CONTINUOUS
10
7.2131
20
-8.9299
11
7.40357
21
-8.83467
0
LINE
8
BLACK
6
CONTINUOUS
10
7.40357
20
-8.83467
11
7.87976
21
-8.83467
0
LINE
8
BLACK
6
CONTINUOUS
10
7.87976
20
-8.83467
11
8.07024
21
-8.9299
0
LINE
8
BLACK
6
CONTINUOUS
10
8.07024
20
-8.9299
11
8.16548
21
-9.02514
0
LINE
8
BLACK
6
CONTINUOUS
10
8.16548
20
-9.02514
11
8.26071
21
-9.21562
0
LINE
8
BLACK
6
CONTINUOUS
10
8.26071
20
-9.21562
11
8.26071
21
-9.69181
0
LINE
8
BLACK
6
CONTINUOUS
10
8.26071
20
-9.69181
11
8.16548
21
-9.88228
0
LINE
8
BLACK
6
CONTINUOUS
10
8.16548
20
-9.88228
11
8.07024
21
-9.97752
0
LINE
8
BLACK
6
CONTINUOUS
10
8.07024
20
-9.97752
11
7.87976
21
-10.0728
0
LINE
8
BLACK
6
CONTINUOUS
10
7.87976
20
-10.0728
11
7.40357
21
-10.0728
0
LINE
8
BLACK
6
CONTINUOUS
10
7.40357
20
-10.0728
11
7.2131
21
-9.97752
0
LINE
8
BLACK
6
CONTINUOUS
10
7.2131
20
-9.97752
11
7.11786
21
-9.88228
0
LINE
8
BLACK
6
CONTINUOUS
10
9.49881
20
-8.07276
11
9.68928
21
-8.07276
0
LINE
8
BLACK
6
CONTINUOUS
10
9.68928
20
-8.07276
11
9.87976
21
-8.168
0
LINE
8
BLACK
6
CONTINUOUS
10
9.87976
20
-8.168
11
9.975
21
-8.26324
0
LINE
8
BLACK
6
CONTINUOUS
10
9.975
20
-8.26324
11
10.0702
21
-8.45371
0
LINE
8
BLACK
6
CONTINUOUS
10
10.0702
20
-8.45371
11
10.1655
21
-8.83467
0
LINE
8
BLACK
6
CONTINUOUS
10
10.1655
20
-8.83467
11
10.1655
21
-9.31086
0
LINE
8
BLACK
6
CONTINUOUS
10
10.1655
20
-9.31086
11
10.0702
21
-9.69181
0
LINE
8
BLACK
6
CONTINUOUS
10
10.0702
20
-9.69181
11
9.975
21
-9.88228
0
LINE
8
BLACK
6
CONTINUOUS
10
9.975
20
-9.88228
11
9.87976
21
-9.97752
0
LINE
8
BLACK
6
CONTINUOUS
10
9.87976
20
-9.97752
11
9.68928
21
-10.0728
0
LINE
8
BLACK
6
CONTINUOUS
10
9.68928
20
-10.0728
11
9.49881
21
-10.0728
0
LINE
8
BLACK
6
CONTINUOUS
10
9.49881
20
-10.0728
11
9.30833
21
-9.97752
0
LINE
8
BLACK
6
CONTINUOUS
10
9.30833
20
-9.97752
11
9.21309
21
-9.88228
0
LINE
8
BLACK
6
CONTINUOUS
10
9.21309
20
-9.88228
11
9.11786
21
-9.69181
0
LINE
8
BLACK
6
CONTINUOUS
10
9.11786
20
-9.69181
11
9.02262
21
-9.31086
0
LINE
8
BLACK
6
CONTINUOUS
10
9.02262
20
-9.31086
11
9.02262
21
-8.83467
0
LINE
8
BLACK
6
CONTINUOUS
10
9.02262
20
-8.83467
11
9.11786
21
-8.45371
0
LINE
8
BLACK
6
CONTINUOUS
10
9.11786
20
-8.45371
11
9.21309
21
-8.26324
0
LINE
8
BLACK
6
CONTINUOUS
10
9.21309
20
-8.26324
11
9.30833
21
-8.168
0
LINE
8
BLACK
6
CONTINUOUS
10
9.30833
20
-8.168
11
9.49881
21
-8.07276
0
LINE
8
BLACK
6
CONTINUOUS
10
11.0226
20
-10.0728
11
11.0226
21
-8.73943
0
LINE
8
BLACK
6
CONTINUOUS
10
11.0226
20
-8.9299
11
11.1179
21
-8.83467
0
LINE
8
BLACK
6
CONTINUOUS
10
11.1179
20
-8.83467
11
11.3083
21
-8.73943
0
LINE
8
BLACK
6
CONTINUOUS
10
11.3083
20
-8.73943
11
11.594
21
-8.73943
0
LINE
8
BLACK
6
CONTINUOUS
10
11.594
20
-8.73943
11
11.7845
21
-8.83467
0
LINE
8
BLACK
6
CONTINUOUS
10
11.7845
20
-8.83467
11
11.8798
21
-9.02514
0
LINE
8
BLACK
6
CONTINUOUS
10
11.8798
20
-9.02514
11
11.8798
21
-10.0728
0
LINE
8
BLACK
6
CONTINUOUS
10
11.8798
20
-9.02514
11
11.975
21
-8.83467
0
LINE
8
BLACK
6
CONTINUOUS
10
11.975
20
-8.83467
11
12.1655
21
-8.73943
0
LINE
8
BLACK
6
CONTINUOUS
10
12.1655
20
-8.73943
11
12.4512
21
-8.73943
0
LINE
8
BLACK
6
CONTINUOUS
10
12.4512
20
-8.73943
11
12.6417
21
-8.83467
0
LINE
8
BLACK
6
CONTINUOUS
10
12.6417
20
-8.83467
11
12.7369
21
-9.02514
0
LINE
8
BLACK
6
CONTINUOUS
10
12.7369
20
-9.02514
11
12.7369
21
-10.0728
0
LINE
8
BLACK
6
CONTINUOUS
10
13.6893
20
-10.0728
11
13.6893
21
-8.73943
0
LINE
8
BLACK
6
CONTINUOUS
10
13.6893
20
-8.9299
11
13.7845
21
-8.83467
0
LINE
8
BLACK
6
CONTINUOUS
10
13.7845
20
-8.83467
11
13.975
21
-8.73943
0
LINE
8
BLACK
6
CONTINUOUS
10
13.975
20
-8.73943
11
14.2607
21
-8.73943
0
LINE
8
BLACK
6
CONTINUOUS
10
14.2607
20
-8.73943
11
14.4512
21
-8.83467
0
LINE
8
BLACK
6
CONTINUOUS
10
14.4512
20
-8.83467
11
14.5464
21
-9.02514
0
LINE
8
BLACK
6
CONTINUOUS
10
14.5464
20
-9.02514
11
14.5464
21
-10.0728
0
LINE
8
BLACK
6
CONTINUOUS
10
14.5464
20
-9.02514
11
14.6417
21
-8.83467
0
LINE
8
BLACK
6
CONTINUOUS
10
14.6417
20
-8.83467
11
14.8321
21
-8.73943
0
LINE
8
BLACK
6
CONTINUOUS
10
14.8321
20
-8.73943
11
15.1179
21
-8.73943
0
LINE
8
BLACK
6
CONTINUOUS
10
15.1179
20
-8.73943
11
15.3083
21
-8.83467
0
LINE
8
BLACK
6
CONTINUOUS
10
15.3083
20
-8.83467
11
15.4036
21
-9.02514
0
LINE
8
BLACK
6
CONTINUOUS
10
15.4036
20
-9.02514
11
15.4036
21
-10.0728
0
LINE
8
BLACK
6
CONTINUOUS
10
19.3083
20
-7.97752
11
17.594
21
-10.549
0
LINE
8
BLACK
6
CONTINUOUS
10
21.8798
20
-8.07276
11
22.0702
21
-8.07276
0
LINE
8
BLACK
6
CONTINUOUS
10
22.0702
20
-8.07276
11
22.2607
21
-8.168
0
LINE
8
BLACK
6
CONTINUOUS
10
22.2607
20
-8.168
11
22.356
21
-8.26324
0
LINE
8
BLACK
6
CONTINUOUS
10
22.356
20
-8.26324
11
22.4512
21
-8.45371
0
LINE
8
BLACK
6
CONTINUOUS
10
22.4512
20
-8.45371
11
22.5464
21
-8.83467
0
LINE
8
BLACK
6
CONTINUOUS
10
22.5464
20
-8.83467
11
22.5464
21
-9.31086
0
LINE
8
BLACK
6
CONTINUOUS
10
22.5464
20
-9.31086
11
22.4512
21
-9.69181
0
LINE
8
BLACK
6
CONTINUOUS
10
22.4512
20
-9.69181
11
22.356
21
-9.88228
0
LINE
8
BLACK
6
CONTINUOUS
10
22.356
20
-9.88228
11
22.2607
21
-9.97752
0
LINE
8
BLACK
6
CONTINUOUS
10
22.2607
20
-9.97752
11
22.0702
21
-10.0728
0
LINE
8
BLACK
6
CONTINUOUS
10
22.0702
20
-10.0728
11
21.8798
21
-10.0728
0
LINE
8
BLACK
6
CONTINUOUS
10
21.8798
20
-10.0728
11
21.6893
21
-9.97752
0
LINE
8
BLACK
6
CONTINUOUS
10
21.6893
20
-9.97752
11
21.594
21
-9.88228
0
LINE
8
BLACK
6
CONTINUOUS
10
21.594
20
-9.88228
11
21.4988
21
-9.69181
0
LINE
8
BLACK
6
CONTINUOUS
10
21.4988
20
-9.69181
11
21.4036
21
-9.31086
0
LINE
8
BLACK
6
CONTINUOUS
10
21.4036
20
-9.31086
11
21.4036
21
-8.83467
0
LINE
8
BLACK
6
CONTINUOUS
10
21.4036
20
-8.83467
11
21.4988
21
-8.45371
0
LINE
8
BLACK
6
CONTINUOUS
10
21.4988
20
-8.45371
11
21.594
21
-8.26324
0
LINE
8
BLACK
6
CONTINUOUS
10
21.594
20
-8.26324
11
21.6893
21
-8.168
0
LINE
8
BLACK
6
CONTINUOUS
10
21.6893
20
-8.168
11
21.8798
21
-8.07276
0
LINE
8
BLACK
6
CONTINUOUS
10
23.4036
20
-9.88228
11
23.4988
21
-9.97752
0
LINE
8
BLACK
6
CONTINUOUS
10
23.4988
20
-9.97752
11
23.4036
21
-10.0728
0
LINE
8
BLACK
6
CONTINUOUS
10
23.4036
20
-10.0728
11
23.3083
21
-9.97752
0
LINE
8
BLACK
6
CONTINUOUS
10
23.3083
20
-9.97752
11
23.4036
21
-9.88228
0
LINE
8
BLACK
6
CONTINUOUS
10
23.4036
20
-9.88228
11
23.4036
21
-10.0728
0
LINE
8
BLACK
6
CONTINUOUS
10
24.7369
20
-8.07276
11
24.9274
21
-8.07276
0
LINE
8
BLACK
6
CONTINUOUS
10
24.9274
20
-8.07276
11
25.1179
21
-8.168
0
LINE
8
BLACK
6
CONTINUOUS
10
25.1179
20
-8.168
11
25.2131
21
-8.26324
0
LINE
8
BLACK
6
CONTINUOUS
10
25.2131
20
-8.26324
11
25.3083
21
-8.45371
0
LINE
8
BLACK
6
CONTINUOUS
10
25.3083
20
-8.45371
11
25.4036
21
-8.83467
0
LINE
8
BLACK
6
CONTINUOUS
10
25.4036
20
-8.83467
11
25.4036
21
-9.31086
0
LINE
8
BLACK
6
CONTINUOUS
10
25.4036
20
-9.31086
11
25.3083
21
-9.69181
0
LINE
8
BLACK
6
CONTINUOUS
10
25.3083
20
-9.69181
11
25.2131
21
-9.88228
0
LINE
8
BLACK
6
CONTINUOUS
10
25.2131
20
-9.88228
11
25.1179
21
-9.97752
0
LINE
8
BLACK
6
CONTINUOUS
10
25.1179
20
-9.97752
11
24.9274
21
-10.0728
0
LINE
8
BLACK
6
CONTINUOUS
10
24.9274
20
-10.0728
11
24.7369
21
-10.0728
0
LINE
8
BLACK
6
CONTINUOUS
10
24.7369
20
-10.0728
11
24.5464
21
-9.97752
0
LINE
8
BLACK
6
CONTINUOUS
10
24.5464
20
-9.97752
11
24.4512
21
-9.88228
0
LINE
8
BLACK
6
CONTINUOUS
10
24.4512
20
-9.88228
11
24.356
21
-9.69181
0
LINE
8
BLACK
6
CONTINUOUS
10
24.356
20
-9.69181
11
24.2607
21
-9.31086
0
LINE
8
BLACK
6
CONTINUOUS
10
24.2607
20
-9.31086
11
24.2607
21
-8.83467
0
LINE
8
BLACK
6
CONTINUOUS
10
24.2607
20
-8.83467
11
24.356
21
-8.45371
0
LINE
8
BLACK
6
CONTINUOUS
10
24.356
20
-8.45371
11
24.4512
21
-8.26324
0
LINE
8
BLACK
6
CONTINUOUS
10
24.4512
20
-8.26324
11
24.5464
21
-8.168
0
LINE
8
BLACK
6
CONTINUOUS
10
24.5464
20
-8.168
11
24.7369
21
-8.07276
0
LINE
8
BLACK
6
CONTINUOUS
10
26.1655
20
-8.26324
11
26.2607
21
-8.168
0
LINE
8
BLACK
6
CONTINUOUS
10
26.2607
20
-8.168
11
26.4512
21
-8.07276
0
LINE
8
BLACK
6
CONTINUOUS
10
26.4512
20
-8.07276
11
26.9274
21
-8.07276
0
LINE
8
BLACK
6
CONTINUOUS
10
26.9274
20
-8.07276
11
27.1179
21
-8.168
0
LINE
8
BLACK
6
CONTINUOUS
10
27.1179
20
-8.168
11
27.2131
21
-8.26324
0
LINE
8
BLACK
6
CONTINUOUS
10
27.2131
20
-8.26324
11
27.3083
21
-8.45371
0
LINE
8
BLACK
6
CONTINUOUS
10
27.3083
20
-8.45371
11
27.3083
21
-8.64419
0
LINE
8
BLACK
6
CONTINUOUS
10
27.3083
20
-8.64419
11
27.2131
21
-8.9299
0
LINE
8
BLACK
6
CONTINUOUS
10
27.2131
20
-8.9299
11
26.0702
21
-10.0728
0
LINE
8
BLACK
6
CONTINUOUS
10
26.0702
20
-10.0728
11
27.3083
21
-10.0728
0
LINE
8
BLACK
6
CONTINUOUS
10
28.2607
20
-10.0728
11
28.6417
21
-10.0728
0
LINE
8
BLACK
6
CONTINUOUS
10
28.6417
20
-10.0728
11
28.8321
21
-9.97752
0
LINE
8
BLACK
6
CONTINUOUS
10
28.8321
20
-9.97752
11
28.9274
21
-9.88228
0
LINE
8
BLACK
6
CONTINUOUS
10
28.9274
20
-9.88228
11
29.1179
21
-9.59657
0
LINE
8
BLACK
6
CONTINUOUS
10
29.1179
20
-9.59657
11
29.2131
21
-9.21562
0
LINE
8
BLACK
6
CONTINUOUS
10
29.2131
20
-9.21562
11
29.2131
21
-8.45371
0
LINE
8
BLACK
6
CONTINUOUS
10
29.2131
20
-8.45371
11
29.1179
21
-8.26324
0
LINE
8
BLACK
6
CONTINUOUS
10
29.1179
20
-8.26324
11
29.0226
21
-8.168
0
LINE
8
BLACK
6
CONTINUOUS
10
29.0226
20
-8.168
11
28.8321
21
-8.07276
0
LINE
8
BLACK
6
CONTINUOUS
10
28.8321
20
-8.07276
11
28.4512
21
-8.07276
0
LINE
8
BLACK
6
CONTINUOUS
10
28.4512
20
-8.07276
11
28.2607
21
-8.168
0
LINE
8
BLACK
6
CONTINUOUS
10
28.2607
20
-8.168
11
28.1655
21
-8.26324
0
LINE
8
BLACK
6
CONTINUOUS
10
28.1655
20
-8.26324
11
28.0702
21
-8.45371
0
LINE
8
BLACK
6
CONTINUOUS
10
28.0702
20
-8.45371
11
28.0702
21
-8.9299
0
LINE
8
BLACK
6
CONTINUOUS
10
28.0702
20
-8.9299
11
28.1655
21
-9.12038
0
LINE
8
BLACK
6
CONTINUOUS
10
28.1655
20
-9.12038
11
28.2607
21
-9.21562
0
LINE
8
BLACK
6
CONTINUOUS
10
28.2607
20
-9.21562
11
28.4512
21
-9.31086
0
LINE
8
BLACK
6
CONTINUOUS
10
28.4512
20
-9.31086
11
28.8321
21
-9.31086
0
LINE
8
BLACK
6
CONTINUOUS
10
28.8321
20
-9.31086
11
29.0226
21
-9.21562
0
LINE
8
BLACK
6
CONTINUOUS
10
29.0226
20
-9.21562
11
29.1179
21
-9.12038
0
LINE
8
BLACK
6
CONTINUOUS
10
29.1179
20
-9.12038
11
29.2131
21
-8.9299
0
LINE
8
BLACK
6
CONTINUOUS
10
31.0226
20
-8.07276
11
30.0702
21
-8.07276
0
LINE
8
BLACK
6
CONTINUOUS
10
30.0702
20
-8.07276
11
29.975
21
-9.02514
0
LINE
8
BLACK
6
CONTINUOUS
10
29.975
20
-9.02514
11
30.0702
21
-8.9299
0
LINE
8
BLACK
6
CONTINUOUS
10
30.0702
20
-8.9299
11
30.2607
21
-8.83467
0
LINE
8
BLACK
6
CONTINUOUS
10
30.2607
20
-8.83467
11
30.7369
21
-8.83467
0
LINE
8
BLACK
6
CONTINUOUS
10
30.7369
20
-8.83467
11
30.9274
21
-8.9299
0
LINE
8
BLACK
6
CONTINUOUS
10
30.9274
20
-8.9299
11
31.0226
21
-9.02514
0
LINE
8
BLACK
6
CONTINUOUS
10
31.0226
20
-9.02514
11
31.1179
21
-9.21562
0
LINE
8
BLACK
6
CONTINUOUS
10
31.1179
20
-9.21562
11
31.1179
21
-9.69181
0
LINE
8
BLACK
6
CONTINUOUS
10
31.1179
20
-9.69181
11
31.0226
21
-9.88228
0
LINE
8
BLACK
6
CONTINUOUS
10
31.0226
20
-9.88228
11
30.9274
21
-9.97752
0
LINE
8
BLACK
6
CONTINUOUS
10
30.9274
20
-9.97752
11
30.7369
21
-10.0728
0
LINE
8
BLACK
6
CONTINUOUS
10
30.7369
20
-10.0728
11
30.2607
21
-10.0728
0
LINE
8
BLACK
6
CONTINUOUS
10
30.2607
20
-10.0728
11
30.0702
21
-9.97752
0
LINE
8
BLACK
6
CONTINUOUS
10
30.0702
20
-9.97752
11
29.975
21
-9.88228
0
LINE
8
BLACK
6
CONTINUOUS
10
31.8798
20
-8.07276
11
31.8798
21
-8.45371
0
LINE
8
BLACK
6
CONTINUOUS
10
32.6417
20
-8.07276
11
32.6417
21
-8.45371
0
LINE
8
BLACK
6
CONTINUOUS
10
35.594
20
-10.8347
11
35.4988
21
-10.7394
0
LINE
8
BLACK
6
CONTINUOUS
10
35.4988
20
-10.7394
11
35.3083
21
-10.4537
0
LINE
8
BLACK
6
CONTINUOUS
10
35.3083
20
-10.4537
11
35.2131
21
-10.2632
0
LINE
8
BLACK
6
CONTINUOUS
10
35.2131
20
-10.2632
11
35.1179
21
-9.97752
0
LINE
8
BLACK
6
CONTINUOUS
10
35.1179
20
-9.97752
11
35.0226
21
-9.50133
0
LINE
8
BLACK
6
CONTINUOUS
10
35.0226
20
-9.50133
11
35.0226
21
-9.12038
0
LINE
8
BLACK
6
CONTINUOUS
10
35.0226
20
-9.12038
11
35.1179
21
-8.64419
0
LINE
8
BLACK
6
CONTINUOUS
10
35.1179
20
-8.64419
11
35.2131
21
-8.35848
0
LINE
8
BLACK
6
CONTINUOUS
10
35.2131
20
-8.35848
11
35.3083
21
-8.168
0
LINE
8
BLACK
6
CONTINUOUS
10
35.3083
20
-8.168
11
35.4988
21
-7.88228
0
LINE
8
BLACK
6
CONTINUOUS
10
35.4988
20
-7.88228
11
35.594
21
-7.78705
0
LINE
8
BLACK
6
CONTINUOUS
10
37.2131
20
-8.73943
11
37.2131
21
-10.0728
0
LINE
8
BLACK
6
CONTINUOUS
10
36.7369
20
-7.97752
11
36.2607
21
-9.40609
0
LINE
8
BLACK
6
CONTINUOUS
10
36.2607
20
-9.40609
11
37.4988
21
-9.40609
0
LINE
8
BLACK
6
CONTINUOUS
10
39.7845
20
-10.0728
11
39.7845
21
-8.07276
0
LINE
8
BLACK
6
CONTINUOUS
10
40.6417
20
-10.0728
11
40.6417
21
-9.02514
0
LINE
8
BLACK
6
CONTINUOUS
10
40.6417
20
-9.02514
11
40.5464
21
-8.83467
0
LINE
8
BLACK
6
CONTINUOUS
10
40.5464
20
-8.83467
11
40.356
21
-8.73943
0
LINE
8
BLACK
6
CONTINUOUS
10
40.356
20
-8.73943
11
40.0702
21
-8.73943
0
LINE
8
BLACK
6
CONTINUOUS
10
40.0702
20
-8.73943
11
39.8798
21
-8.83467
0
LINE
8
BLACK
6
CONTINUOUS
10
39.8798
20
-8.83467
11
39.7845
21
-8.9299
0
LINE
8
BLACK
6
CONTINUOUS
10
41.8798
20
-10.0728
11
41.6893
21
-9.97752
0
LINE
8
BLACK
6
CONTINUOUS
10
41.6893
20
-9.97752
11
41.594
21
-9.88228
0
LINE
8
BLACK
6
CONTINUOUS
10
41.594
20
-9.88228
11
41.4988
21
-9.69181
0
LINE
8
BLACK
6
CONTINUOUS
10
41.4988
20
-9.69181
11
41.4988
21
-9.12038
0
LINE
8
BLACK
6
CONTINUOUS
10
41.4988
20
-9.12038
11
41.594
21
-8.9299
0
LINE
8
BLACK
6
CONTINUOUS
10
41.594
20
-8.9299
11
41.6893
21
-8.83467
0
LINE
8
BLACK
6
CONTINUOUS
10
41.6893
20
-8.83467
11
41.8798
21
-8.73943
0
LINE
8
BLACK
6
CONTINUOUS
10
41.8798
20
-8.73943
11
42.1655
21
-8.73943
0
LINE
8
BLACK
6
CONTINUOUS
10
42.1655
20
-8.73943
11
42.356
21
-8.83467
0
LINE
8
BLACK
6
CONTINUOUS
10
42.356
20
-8.83467
11
42.4512
21
-8.9299
0
LINE
8
BLACK
6
CONTINUOUS
10
42.4512
20
-8.9299
11
42.5464
21
-9.12038
0
LINE
8
BLACK
6
CONTINUOUS
10
42.5464
20
-9.12038
11
42.5464
21
-9.69181
0
LINE
8
BLACK
6
CONTINUOUS
10
42.5464
20
-9.69181
11
42.4512
21
-9.88228
0
LINE
8
BLACK
6
CONTINUOUS
10
42.4512
20
-9.88228
11
42.356
21
-9.97752
0
LINE
8
BLACK
6
CONTINUOUS
10
42.356
20
-9.97752
11
42.1655
21
-10.0728
0
LINE
8
BLACK
6
CONTINUOUS
10
42.1655
20
-10.0728
11
41.8798
21
-10.0728
0
LINE
8
BLACK
6
CONTINUOUS
10
43.6893
20
-10.0728
11
43.4988
21
-9.97752
0
LINE
8
BLACK
6
CONTINUOUS
10
43.4988
20
-9.97752
11
43.4036
21
-9.78705
0
LINE
8
BLACK
6
CONTINUOUS
10
43.4036
20
-9.78705
11
43.4036
21
-8.07276
0
LINE
8
BLACK
6
CONTINUOUS
10
45.2131
20
-9.97752
11
45.0226
21
-10.0728
0
LINE
8
BLACK
6
CONTINUOUS
10
45.0226
20
-10.0728
11
44.6417
21
-10.0728
0
LINE
8
BLACK
6
CONTINUOUS
10
44.6417
20
-10.0728
11
44.4512
21
-9.97752
0
LINE
8
BLACK
6
CONTINUOUS
10
44.4512
20
-9.97752
11
44.356
21
-9.78705
0
LINE
8
BLACK
6
CONTINUOUS
10
44.356
20
-9.78705
11
44.356
21
-9.02514
0
LINE
8
BLACK
6
CONTINUOUS
10
44.356
20
-9.02514
11
44.4512
21
-8.83467
0
LINE
8
BLACK
6
CONTINUOUS
10
44.4512
20
-8.83467
11
44.6417
21
-8.73943
0
LINE
8
BLACK
6
CONTINUOUS
10
44.6417
20
-8.73943
11
45.0226
21
-8.73943
0
LINE
8
BLACK
6
CONTINUOUS
10
45.0226
20
-8.73943
11
45.2131
21
-8.83467
0
LINE
8
BLACK
6
CONTINUOUS
10
45.2131
20
-8.83467
11
45.3083
21
-9.02514
0
LINE
8
BLACK
6
CONTINUOUS
10
45.3083
20
-9.02514
11
45.3083
21
-9.21562
0
LINE
8
BLACK
6
CONTINUOUS
10
45.3083
20
-9.21562
11
44.356
21
-9.40609
0
LINE
8
BLACK
6
CONTINUOUS
10
46.0702
20
-9.97752
11
46.2607
21
-10.0728
0
LINE
8
BLACK
6
CONTINUOUS
10
46.2607
20
-10.0728
11
46.6417
21
-10.0728
0
LINE
8
BLACK
6
CONTINUOUS
10
46.6417
20
-10.0728
11
46.8321
21
-9.97752
0
LINE
8
BLACK
6
CONTINUOUS
10
46.8321
20
-9.97752
11
46.9274
21
-9.78705
0
LINE
8
BLACK
6
CONTINUOUS
10
46.9274
20
-9.78705
11
46.9274
21
-9.69181
0
LINE
8
BLACK
6
CONTINUOUS
10
46.9274
20
-9.69181
11
46.8321
21
-9.50133
0
LINE
8
BLACK
6
CONTINUOUS
10
46.8321
20
-9.50133
11
46.6417
21
-9.40609
0
LINE
8
BLACK
6
CONTINUOUS
10
46.6417
20
-9.40609
11
46.356
21
-9.40609
0
LINE
8
BLACK
6
CONTINUOUS
10
46.356
20
-9.40609
11
46.1655
21
-9.31086
0
LINE
8
BLACK
6
CONTINUOUS
10
46.1655
20
-9.31086
11
46.0702
21
-9.12038
0
LINE
8
BLACK
6
CONTINUOUS
10
46.0702
20
-9.12038
11
46.0702
21
-9.02514
0
LINE
8
BLACK
6
CONTINUOUS
10
46.0702
20
-9.02514
11
46.1655
21
-8.83467
0
LINE
8
BLACK
6
CONTINUOUS
10
46.1655
20
-8.83467
11
46.356
21
-8.73943
0
LINE
8
BLACK
6
CONTINUOUS
10
46.356
20
-8.73943
11
46.6417
21
-8.73943
0
LINE
8
BLACK
6
CONTINUOUS
10
46.6417
20
-8.73943
11
46.8321
21
-8.83467
0
LINE
8
BLACK
6
CONTINUOUS
10
47.594
20
-10.8347
11
47.6893
21
-10.7394
0
LINE
8
BLACK
6
CONTINUOUS
10
47.6893
20
-10.7394
11
47.8798
21
-10.4537
0
LINE
8
BLACK
6
CONTINUOUS
10
47.8798
20
-10.4537
11
47.975
21
-10.2632
0
LINE
8
BLACK
6
CONTINUOUS
10
47.975
20
-10.2632
11
48.0702
21
-9.97752
0
LINE
8
BLACK
6
CONTINUOUS
10
48.0702
20
-9.97752
11
48.1655
21
-9.50133
0
LINE
8
BLACK
6
CONTINUOUS
10
48.1655
20
-9.50133
11
48.1655
21
-9.12038
0
LINE
8
BLACK
6
CONTINUOUS
10
48.1655
20
-9.12038
11
48.0702
21
-8.64419
0
LINE
8
BLACK
6
CONTINUOUS
10
48.0702
20
-8.64419
11
47.975
21
-8.35848
0
LINE
8
BLACK
6
CONTINUOUS
10
47.975
20
-8.35848
11
47.8798
21
-8.168
0
LINE
8
BLACK
6
CONTINUOUS
10
47.8798
20
-8.168
11
47.6893
21
-7.88228
0
LINE
8
BLACK
6
CONTINUOUS
10
47.6893
20
-7.88228
11
47.594
21
-7.78705
0
LINE
8
BLACK
6
CONTINUOUS
10
-1.125
20
-10.808
11
-1.125
21
-12.808
0
LINE
8
BLACK
6
CONTINUOUS
10
-2.125
20
-11.808
11
-0.125
21
-11.808
0
LINE
8
BLACK
6
CONTINUOUS
10
2.35595
20
-10.9032
11
2.45119
21
-10.808
0
LINE
8
BLACK
6
CONTINUOUS
10
2.45119
20
-10.808
11
2.64167
21
-10.7128
0
LINE
8
BLACK
6
CONTINUOUS
10
2.64167
20
-10.7128
11
3.11786
21
-10.7128
0
LINE
8
BLACK
6
CONTINUOUS
10
3.11786
20
-10.7128
11
3.30833
21
-10.808
0
LINE
8
BLACK
6
CONTINUOUS
10
3.30833
20
-10.808
11
3.40357
21
-10.9032
0
LINE
8
BLACK
6
CONTINUOUS
10
3.40357
20
-10.9032
11
3.49881
21
-11.0937
0
LINE
8
BLACK
6
CONTINUOUS
10
3.49881
20
-11.0937
11
3.49881
21
-11.2842
0
LINE
8
BLACK
6
CONTINUOUS
10
3.49881
20
-11.2842
11
3.40357
21
-11.5699
0
LINE
8
BLACK
6
CONTINUOUS
10
3.40357
20
-11.5699
11
2.26071
21
-12.7128
0
LINE
8
BLACK
6
CONTINUOUS
10
2.26071
20
-12.7128
11
3.49881
21
-12.7128
0
LINE
8
BLACK
6
CONTINUOUS
10
4.35595
20
-12.5223
11
4.45119
21
-12.6175
0
LINE
8
BLACK
6
CONTINUOUS
10
4.45119
20
-12.6175
11
4.35595
21
-12.7128
0
LINE
8
BLACK
6
CONTINUOUS
10
4.35595
20
-12.7128
11
4.26071
21
-12.6175
0
LINE
8
BLACK
6
CONTINUOUS
10
4.26071
20
-12.6175
11
4.35595
21
-12.5223
0
LINE
8
BLACK
6
CONTINUOUS
10
4.35595
20
-12.5223
11
4.35595
21
-12.7128
0
LINE
8
BLACK
6
CONTINUOUS
10
6.35595
20
-12.7128
11
5.2131
21
-12.7128
0
LINE
8
BLACK
6
CONTINUOUS
10
5.78452
20
-12.7128
11
5.78452
21
-10.7128
0
LINE
8
BLACK
6
CONTINUOUS
10
5.78452
20
-10.7128
11
5.59405
21
-10.9985
0
LINE
8
BLACK
6
CONTINUOUS
10
5.59405
20
-10.9985
11
5.40357
21
-11.189
0
LINE
8
BLACK
6
CONTINUOUS
10
5.40357
20
-11.189
11
5.2131
21
-11.2842
0
LINE
8
BLACK
6
CONTINUOUS
10
7.59405
20
-10.7128
11
7.78452
21
-10.7128
0
LINE
8
BLACK
6
CONTINUOUS
10
7.78452
20
-10.7128
11
7.975
21
-10.808
0
LINE
8
BLACK
6
CONTINUOUS
10
7.975
20
-10.808
11
8.07024
21
-10.9032
0
LINE
8
BLACK
6
CONTINUOUS
10
8.07024
20
-10.9032
11
8.16548
21
-11.0937
0
LINE
8
BLACK
6
CONTINUOUS
10
8.16548
20
-11.0937
11
8.26071
21
-11.4747
0
LINE
8
BLACK
6
CONTINUOUS
10
8.26071
20
-11.4747
11
8.26071
21
-11.9509
0
LINE
8
BLACK
6
CONTINUOUS
10
8.26071
20
-11.9509
11
8.16548
21
-12.3318
0
LINE
8
BLACK
6
CONTINUOUS
10
8.16548
20
-12.3318
11
8.07024
21
-12.5223
0
LINE
8
BLACK
6
CONTINUOUS
10
8.07024
20
-12.5223
11
7.975
21
-12.6175
0
LINE
8
BLACK
6
CONTINUOUS
10
7.975
20
-12.6175
11
7.78452
21
-12.7128
0
LINE
8
BLACK
6
CONTINUOUS
10
7.78452
20
-12.7128
11
7.59405
21
-12.7128
0
LINE
8
BLACK
6
CONTINUOUS
10
7.59405
20
-12.7128
11
7.40357
21
-12.6175
0
LINE
8
BLACK
6
CONTINUOUS
10
7.40357
20
-12.6175
11
7.30833
21
-12.5223
0
LINE
8
BLACK
6
CONTINUOUS
10
7.30833
20
-12.5223
11
7.2131
21
-12.3318
0
LINE
8
BLACK
6
CONTINUOUS
10
7.2131
20
-12.3318
11
7.11786
21
-11.9509
0
LINE
8
BLACK
6
CONTINUOUS
10
7.11786
20
-11.9509
11
7.11786
21
-11.4747
0
LINE
8
BLACK
6
CONTINUOUS
10
7.11786
20
-11.4747
11
7.2131
21
-11.0937
0
LINE
8
BLACK
6
CONTINUOUS
10
7.2131
20
-11.0937
11
7.30833
21
-10.9032
0
LINE
8
BLACK
6
CONTINUOUS
10
7.30833
20
-10.9032
11
7.40357
21
-10.808
0
LINE
8
BLACK
6
CONTINUOUS
10
7.40357
20
-10.808
11
7.59405
21
-10.7128
0
LINE
8
BLACK
6
CONTINUOUS
10
9.49881
20
-10.7128
11
9.68928
21
-10.7128
0
LINE
8
BLACK
6
CONTINUOUS
10
9.68928
20
-10.7128
11
9.87976
21
-10.808
0
LINE
8
BLACK
6
CONTINUOUS
10
9.87976
20
-10.808
11
9.975
21
-10.9032
0
LINE
8
BLACK
6
CONTINUOUS
10
9.975
20
-10.9032
11
10.0702
21
-11.0937
0
LINE
8
BLACK
6
CONTINUOUS
10
10.0702
20
-11.0937
11
10.1655
21
-11.4747
0
LINE
8
BLACK
6
CONTINUOUS
10
10.1655
20
-11.4747
11
10.1655
21
-11.9509
0
LINE
8
BLACK
6
CONTINUOUS
10
10.1655
20
-11.9509
11
10.0702
21
-12.3318
0
LINE
8
BLACK
6
CONTINUOUS
10
10.0702
20
-12.3318
11
9.975
21
-12.5223
0
LINE
8
BLACK
6
CONTINUOUS
10
9.975
20
-12.5223
11
9.87976
21
-12.6175
0
LINE
8
BLACK
6
CONTINUOUS
10
9.87976
20
-12.6175
11
9.68928
21
-12.7128
0
LINE
8
BLACK
6
CONTINUOUS
10
9.68928
20
-12.7128
11
9.49881
21
-12.7128
0
LINE
8
BLACK
6
CONTINUOUS
10
9.49881
20
-12.7128
11
9.30833
21
-12.6175
0
LINE
8
BLACK
6
CONTINUOUS
10
9.30833
20
-12.6175
11
9.21309
21
-12.5223
0
LINE
8
BLACK
6
CONTINUOUS
10
9.21309
20
-12.5223
11
9.11786
21
-12.3318
0
LINE
8
BLACK
6
CONTINUOUS
10
9.11786
20
-12.3318
11
9.02262
21
-11.9509
0
LINE
8
BLACK
6
CONTINUOUS
10
9.02262
20
-11.9509
11
9.02262
21
-11.4747
0
LINE
8
BLACK
6
CONTINUOUS
10
9.02262
20
-11.4747
11
9.11786
21
-11.0937
0
LINE
8
BLACK
6
CONTINUOUS
10
9.11786
20
-11.0937
11
9.21309
21
-10.9032
0
LINE
8
BLACK
6
CONTINUOUS
10
9.21309
20
-10.9032
11
9.30833
21
-10.808
0
LINE
8
BLACK
6
CONTINUOUS
10
9.30833
20
-10.808
11
9.49881
21
-10.7128
0
LINE
8
BLACK
6
CONTINUOUS
10
11.0226
20
-12.7128
11
11.0226
21
-11.3794
0
LINE
8
BLACK
6
CONTINUOUS
10
11.0226
20
-11.5699
11
11.1179
21
-11.4747
0
LINE
8
BLACK
6
CONTINUOUS
10
11.1179
20
-11.4747
11
11.3083
21
-11.3794
0
LINE
8
BLACK
6
CONTINUOUS
10
11.3083
20
-11.3794
11
11.594
21
-11.3794
0
LINE
8
BLACK
6
CONTINUOUS
10
11.594
20
-11.3794
11
11.7845
21
-11.4747
0
LINE
8
BLACK
6
CONTINUOUS
10
11.7845
20
-11.4747
11
11.8798
21
-11.6651
0
LINE
8
BLACK
6
CONTINUOUS
10
11.8798
20
-11.6651
11
11.8798
21
-12.7128
0
LINE
8
BLACK
6
CONTINUOUS
10
11.8798
20
-11.6651
11
11.975
21
-11.4747
0
LINE
8
BLACK
6
CONTINUOUS
10
11.975
20
-11.4747
11
12.1655
21
-11.3794
0
LINE
8
BLACK
6
CONTINUOUS
10
12.1655
20
-11.3794
11
12.4512
21
-11.3794
0
LINE
8
BLACK
6
CONTINUOUS
10
12.4512
20
-11.3794
11
12.6417
21
-11.4747
0
LINE
8
BLACK
6
CONTINUOUS
10
12.6417
20
-11.4747
11
12.7369
21
-11.6651
0
LINE
8
BLACK
6
CONTINUOUS
10
12.7369
20
-11.6651
11
12.7369
21
-12.7128
0
LINE
8
BLACK
6
CONTINUOUS
10
13.6893
20
-12.7128
11
13.6893
21
-11.3794
0
LINE
8
BLACK
6
CONTINUOUS
10
13.6893
20
-11.5699
11
13.7845
21
-11.4747
0
LINE
8
BLACK
6
CONTINUOUS
10
13.7845
20
-11.4747
11
13.975
21
-11.3794
0
LINE
8
BLACK
6
CONTINUOUS
10
13.975
20
-11.3794
11
14.2607
21
-11.3794
0
LINE
8
BLACK
6
CONTINUOUS
10
14.2607
20
-11.3794
11
14.4512
21
-11.4747
0
LINE
8
BLACK
6
CONTINUOUS
10
14.4512
20
-11.4747
11
14.5464
21
-11.6651
0
LINE
8
BLACK
6
CONTINUOUS
10
14.5464
20
-11.6651
11
14.5464
21
-12.7128
0
LINE
8
BLACK
6
CONTINUOUS
10
14.5464
20
-11.6651
11
14.6417
21
-11.4747
0
LINE
8
BLACK
6
CONTINUOUS
10
14.6417
20
-11.4747
11
14.8321
21
-11.3794
0
LINE
8
BLACK
6
CONTINUOUS
10
14.8321
20
-11.3794
11
15.1179
21
-11.3794
0
LINE
8
BLACK
6
CONTINUOUS
10
15.1179
20
-11.3794
11
15.3083
21
-11.4747
0
LINE
8
BLACK
6
CONTINUOUS
10
15.3083
20
-11.4747
11
15.4036
21
-11.6651
0
LINE
8
BLACK
6
CONTINUOUS
10
15.4036
20
-11.6651
11
15.4036
21
-12.7128
0
LINE
8
BLACK
6
CONTINUOUS
10
19.3083
20
-10.6175
11
17.594
21
-13.189
0
LINE
8
BLACK
6
CONTINUOUS
10
21.8798
20
-10.7128
11
22.0702
21
-10.7128
0
LINE
8
BLACK
6
CONTINUOUS
10
22.0702
20
-10.7128
11
22.2607
21
-10.808
0
LINE
8
BLACK
6
CONTINUOUS
10
22.2607
20
-10.808
11
22.356
21
-10.9032
0
LINE
8
BLACK
6
CONTINUOUS
10
22.356
20
-10.9032
11
22.4512
21
-11.0937
0
LINE
8
BLACK
6
CONTINUOUS
10
22.4512
20
-11.0937
11
22.5464
21
-11.4747
0
LINE
8
BLACK
6
CONTINUOUS
10
22.5464
20
-11.4747
11
22.5464
21
-11.9509
0
LINE
8
BLACK
6
CONTINUOUS
10
22.5464
20
-11.9509
11
22.4512
21
-12.3318
0
LINE
8
BLACK
6
CONTINUOUS
10
22.4512
20
-12.3318
11
22.356
21
-12.5223
0
LINE
8
BLACK
6
CONTINUOUS
10
22.356
20
-12.5223
11
22.2607
21
-12.6175
0
LINE
8
BLACK
6
CONTINUOUS
10
22.2607
20
-12.6175
11
22.0702
21
-12.7128
0
LINE
8
BLACK
6
CONTINUOUS
10
22.0702
20
-12.7128
11
21.8798
21
-12.7128
0
LINE
8
BLACK
6
CONTINUOUS
10
21.8798
20
-12.7128
11
21.6893
21
-12.6175
0
LINE
8
BLACK
6
CONTINUOUS
10
21.6893
20
-12.6175
11
21.594
21
-12.5223
0
LINE
8
BLACK
6
CONTINUOUS
10
21.594
20
-12.5223
11
21.4988
21
-12.3318
0
LINE
8
BLACK
6
CONTINUOUS
10
21.4988
20
-12.3318
11
21.4036
21
-11.9509
0
LINE
8
BLACK
6
CONTINUOUS
10
21.4036
20
-11.9509
11
21.4036
21
-11.4747
0
LINE
8
BLACK
6
CONTINUOUS
10
21.4036
20
-11.4747
11
21.4988
21
-11.0937
0
LINE
8
BLACK
6
CONTINUOUS
10
21.4988
20
-11.0937
11
21.594
21
-10.9032
0
LINE
8
BLACK
6
CONTINUOUS
10
21.594
20
-10.9032
11
21.6893
21
-10.808
0
LINE
8
BLACK
6
CONTINUOUS
10
21.6893
20
-10.808
11
21.8798
21
-10.7128
0
LINE
8
BLACK
6
CONTINUOUS
10
23.4036
20
-12.5223
11
23.4988
21
-12.6175
0
LINE
8
BLACK
6
CONTINUOUS
10
23.4988
20
-12.6175
11
23.4036
21
-12.7128
0
LINE
8
BLACK
6
CONTINUOUS
10
23.4036
20
-12.7128
11
23.3083
21
-12.6175
0
LINE
8
BLACK
6
CONTINUOUS
10
23.3083
20
-12.6175
11
23.4036
21
-12.5223
0
LINE
8
BLACK
6
CONTINUOUS
10
23.4036
20
-12.5223
11
23.4036
21
-12.7128
0
LINE
8
BLACK
6
CONTINUOUS
10
24.7369
20
-10.7128
11
24.9274
21
-10.7128
0
LINE
8
BLACK
6
CONTINUOUS
10
24.9274
20
-10.7128
11
25.1179
21
-10.808
0
LINE
8
BLACK
6
CONTINUOUS
10
25.1179
20
-10.808
11
25.2131
21
-10.9032
0
LINE
8
BLACK
6
CONTINUOUS
10
25.2131
20
-10.9032
11
25.3083
21
-11.0937
0
LINE
8
BLACK
6
CONTINUOUS
10
25.3083
20
-11.0937
11
25.4036
21
-11.4747
0
LINE
8
BLACK
6
CONTINUOUS
10
25.4036
20
-11.4747
11
25.4036
21
-11.9509
0
LINE
8
BLACK
6
CONTINUOUS
10
25.4036
20
-11.9509
11
25.3083
21
-12.3318
0
LINE
8
BLACK
6
CONTINUOUS
10
25.3083
20
-12.3318
11
25.2131
21
-12.5223
0
LINE
8
BLACK
6
CONTINUOUS
10
25.2131
20
-12.5223
11
25.1179
21
-12.6175
0
LINE
8
BLACK
6
CONTINUOUS
10
25.1179
20
-12.6175
11
24.9274
21
-12.7128
0
LINE
8
BLACK
6
CONTINUOUS
10
24.9274
20
-12.7128
11
24.7369
21
-12.7128
0
LINE
8
BLACK
6
CONTINUOUS
10
24.7369
20
-12.7128
11
24.5464
21
-12.6175
0
LINE
8
BLACK
6
CONTINUOUS
10
24.5464
20
-12.6175
11
24.4512
21
-12.5223
0
LINE
8
BLACK
6
CONTINUOUS
10
24.4512
20
-12.5223
11
24.356
21
-12.3318
0
LINE
8
BLACK
6
CONTINUOUS
10
24.356
20
-12.3318
11
24.2607
21
-11.9509
0
LINE
8
BLACK
6
CONTINUOUS
10
24.2607
20
-11.9509
11
24.2607
21
-11.4747
0
LINE
8
BLACK
6
CONTINUOUS
10
24.2607
20
-11.4747
11
24.356
21
-11.0937
0
LINE
8
BLACK
6
CONTINUOUS
10
24.356
20
-11.0937
11
24.4512
21
-10.9032
0
LINE
8
BLACK
6
CONTINUOUS
10
24.4512
20
-10.9032
11
24.5464
21
-10.808
0
LINE
8
BLACK
6
CONTINUOUS
10
24.5464
20
-10.808
11
24.7369
21
-10.7128
0
LINE
8
BLACK
6
CONTINUOUS
10
26.5464
20
-11.5699
11
26.356
21
-11.4747
0
LINE
8
BLACK
6
CONTINUOUS
10
26.356
20
-11.4747
11
26.2607
21
-11.3794
0
LINE
8
BLACK
6
CONTINUOUS
10
26.2607
20
-11.3794
11
26.1655
21
-11.189
0
LINE
8
BLACK
6
CONTINUOUS
10
26.1655
20
-11.189
11
26.1655
21
-11.0937
0
LINE
8
BLACK
6
CONTINUOUS
10
26.1655
20
-11.0937
11
26.2607
21
-10.9032
0
LINE
8
BLACK
6
CONTINUOUS
10
26.2607
20
-10.9032
11
26.356
21
-10.808
0
LINE
8
BLACK
6
CONTINUOUS
10
26.356
20
-10.808
11
26.5464
21
-10.7128
0
LINE
8
BLACK
6
CONTINUOUS
10
26.5464
20
-10.7128
11
26.9274
21
-10.7128
0
LINE
8
BLACK
6
CONTINUOUS
10
26.9274
20
-10.7128
11
27.1179
21
-10.808
0
LINE
8
BLACK
6
CONTINUOUS
10
27.1179
20
-10.808
11
27.2131
21
-10.9032
0
LINE
8
BLACK
6
CONTINUOUS
10
27.2131
20
-10.9032
11
27.3083
21
-11.0937
0
LINE
8
BLACK
6
CONTINUOUS
10
27.3083
20
-11.0937
11
27.3083
21
-11.189
0
LINE
8
BLACK
6
CONTINUOUS
10
27.3083
20
-11.189
11
27.2131
21
-11.3794
0
LINE
8
BLACK
6
CONTINUOUS
10
27.2131
20
-11.3794
11
27.1179
21
-11.4747
0
LINE
8
BLACK
6
CONTINUOUS
10
27.1179
20
-11.4747
11
26.9274
21
-11.5699
0
LINE
8
BLACK
6
CONTINUOUS
10
26.9274
20
-11.5699
11
26.5464
21
-11.5699
0
LINE
8
BLACK
6
CONTINUOUS
10
26.5464
20
-11.5699
11
26.356
21
-11.6651
0
LINE
8
BLACK
6
CONTINUOUS
10
26.356
20
-11.6651
11
26.2607
21
-11.7604
0
LINE
8
BLACK
6
CONTINUOUS
10
26.2607
20
-11.7604
11
26.1655
21
-11.9509
0
LINE
8
BLACK
6
CONTINUOUS
10
26.1655
20
-11.9509
11
26.1655
21
-12.3318
0
LINE
8
BLACK
6
CONTINUOUS
10
26.1655
20
-12.3318
11
26.2607
21
-12.5223
0
LINE
8
BLACK
6
CONTINUOUS
10
26.2607
20
-12.5223
11
26.356
21
-12.6175
0
LINE
8
BLACK
6
CONTINUOUS
10
26.356
20
-12.6175
11
26.5464
21
-12.7128
0
LINE
8
BLACK
6
CONTINUOUS
10
26.5464
20
-12.7128
11
26.9274
21
-12.7128
0
LINE
8
BLACK
6
CONTINUOUS
10
26.9274
20
-12.7128
11
27.1179
21
-12.6175
0
LINE
8
BLACK
6
CONTINUOUS
10
27.1179
20
-12.6175
11
27.2131
21
-12.5223
0
LINE
8
BLACK
6
CONTINUOUS
10
27.2131
20
-12.5223
11
27.3083
21
-12.3318
0
LINE
8
BLACK
6
CONTINUOUS
10
27.3083
20
-12.3318
11
27.3083
21
-11.9509
0
LINE
8
BLACK
6
CONTINUOUS
10
27.3083
20
-11.9509
11
27.2131
21
-11.7604
0
LINE
8
BLACK
6
CONTINUOUS
10
27.2131
20
-11.7604
11
27.1179
21
-11.6651
0
LINE
8
BLACK
6
CONTINUOUS
10
27.1179
20
-11.6651
11
26.9274
21
-11.5699
0
LINE
8
BLACK
6
CONTINUOUS
10
28.0702
20
-10.9032
11
28.1655
21
-10.808
0
LINE
8
BLACK
6
CONTINUOUS
10
28.1655
20
-10.808
11
28.356
21
-10.7128
0
LINE
8
BLACK
6
CONTINUOUS
10
28.356
20
-10.7128
11
28.8321
21
-10.7128
0
LINE
8
BLACK
6
CONTINUOUS
10
28.8321
20
-10.7128
11
29.0226
21
-10.808
0
LINE
8
BLACK
6
CONTINUOUS
10
29.0226
20
-10.808
11
29.1179
21
-10.9032
0
LINE
8
BLACK
6
CONTINUOUS
10
29.1179
20
-10.9032
11
29.2131
21
-11.0937
0
LINE
8
BLACK
6
CONTINUOUS
10
29.2131
20
-11.0937
11
29.2131
21
-11.2842
0
LINE
8
BLACK
6
CONTINUOUS
10
29.2131
20
-11.2842
11
29.1179
21
-11.5699
0
LINE
8
BLACK
6
CONTINUOUS
10
29.1179
20
-11.5699
11
27.975
21
-12.7128
0
LINE
8
BLACK
6
CONTINUOUS
10
27.975
20
-12.7128
11
29.2131
21
-12.7128
0
LINE
8
BLACK
6
CONTINUOUS
10
29.8798
20
-10.7128
11
31.2131
21
-10.7128
0
LINE
8
BLACK
6
CONTINUOUS
10
31.2131
20
-10.7128
11
30.356
21
-12.7128
0
LINE
8
BLACK
6
CONTINUOUS
10
31.8798
20
-10.7128
11
31.8798
21
-11.0937
0
LINE
8
BLACK
6
CONTINUOUS
10
32.6417
20
-10.7128
11
32.6417
21
-11.0937
0
LINE
8
BLACK
6
CONTINUOUS
10
35.594
20
-13.4747
11
35.4988
21
-13.3794
0
LINE
8
BLACK
6
CONTINUOUS
10
35.4988
20
-13.3794
11
35.3083
21
-13.0937
0
LINE
8
BLACK
6
CONTINUOUS
10
35.3083
20
-13.0937
11
35.2131
21
-12.9032
0
LINE
8
BLACK
6
CONTINUOUS
10
35.2131
20
-12.9032
11
35.1179
21
-12.6175
0
LINE
8
BLACK
6
CONTINUOUS
10
35.1179
20
-12.6175
11
35.0226
21
-12.1413
0
LINE
8
BLACK
6
CONTINUOUS
10
35.0226
20
-12.1413
11
35.0226
21
-11.7604
0
LINE
8
BLACK
6
CONTINUOUS
10
35.0226
20
-11.7604
11
35.1179
21
-11.2842
0
LINE
8
BLACK
6
CONTINUOUS
10
35.1179
20
-11.2842
11
35.2131
21
-10.9985
0
LINE
8
BLACK
6
CONTINUOUS
10
35.2131
20
-10.9985
11
35.3083
21
-10.808
0
LINE
8
BLACK
6
CONTINUOUS
10
35.3083
20
-10.808
11
35.4988
21
-10.5223
0
LINE
8
BLACK
6
CONTINUOUS
10
35.4988
20
-10.5223
11
35.594
21
-10.427
0
LINE
8
BLACK
6
CONTINUOUS
10
36.1655
20
-10.7128
11
37.4036
21
-10.7128
0
LINE
8
BLACK
6
CONTINUOUS
10
37.4036
20
-10.7128
11
36.7369
21
-11.4747
0
LINE
8
BLACK
6
CONTINUOUS
10
36.7369
20
-11.4747
11
37.0226
21
-11.4747
0
LINE
8
BLACK
6
CONTINUOUS
10
37.0226
20
-11.4747
11
37.2131
21
-11.5699
0
LINE
8
BLACK
6
CONTINUOUS
10
37.2131
20
-11.5699
11
37.3083
21
-11.6651
0
LINE
8
BLACK
6
CONTINUOUS
10
37.3083
20
-11.6651
11
37.4036
21
-11.8556
0
LINE
8
BLACK
6
CONTINUOUS
10
37.4036
20
-11.8556
11
37.4036
21
-12.3318
0
LINE
8
BLACK
6
CONTINUOUS
10
37.4036
20
-12.3318
11
37.3083
21
-12.5223
0
LINE
8
BLACK
6
CONTINUOUS
10
37.3083
20
-12.5223
11
37.2131
21
-12.6175
0
LINE
8
BLACK
6
CONTINUOUS
10
37.2131
20
-12.6175
11
37.0226
21
-12.7128
0
LINE
8
BLACK
6
CONTINUOUS
10
37.0226
20
-12.7128
11
36.4512
21
-12.7128
0
LINE
8
BLACK
6
CONTINUOUS
10
36.4512
20
-12.7128
11
36.2607
21
-12.6175
0
LINE
8
BLACK
6
CONTINUOUS
10
36.2607
20
-12.6175
11
36.1655
21
-12.5223
0
LINE
8
BLACK
6
CONTINUOUS
10
39.7845
20
-12.7128
11
39.7845
21
-10.7128
0
LINE
8
BLACK
6
CONTINUOUS
10
40.6417
20
-12.7128
11
40.6417
21
-11.6651
0
LINE
8
BLACK
6
CONTINUOUS
10
40.6417
20
-11.6651
11
40.5464
21
-11.4747
0
LINE
8
BLACK
6
CONTINUOUS
10
40.5464
20
-11.4747
11
40.356
21
-11.3794
0
LINE
8
BLACK
6
CONTINUOUS
10
40.356
20
-11.3794
11
40.0702
21
-11.3794
0
LINE
8
BLACK
6
CONTINUOUS
10
40.0702
20
-11.3794
11
39.8798
21
-11.4747
0
LINE
8
BLACK
6
CONTINUOUS
10
39.8798
20
-11.4747
11
39.7845
21
-11.5699
0
LINE
8
BLACK
6
CONTINUOUS
10
41.8798
20
-12.7128
11
41.6893
21
-12.6175
0
LINE
8
BLACK
6
CONTINUOUS
10
41.6893
20
-12.6175
11
41.594
21
-12.5223
0
LINE
8
BLACK
6
CONTINUOUS
10
41.594
20
-12.5223
11
41.4988
21
-12.3318
0
LINE
8
BLACK
6
CONTINUOUS
10
41.4988
20
-12.3318
11
41.4988
21
-11.7604
0
LINE
8
BLACK
6
CONTINUOUS
10
41.4988
20
-11.7604
11
41.594
21
-11.5699
0
LINE
8
BLACK
6
CONTINUOUS
10
41.594
20
-11.5699
11
41.6893
21
-11.4747
0
LINE
8
BLACK
6
CONTINUOUS
10
41.6893
20
-11.4747
11
41.8798
21
-11.3794
0
LINE
8
BLACK
6
CONTINUOUS
10
41.8798
20
-11.3794
11
42.1655
21
-11.3794
0
LINE
8
BLACK
6
CONTINUOUS
10
42.1655
20
-11.3794
11
42.356
21
-11.4747
0
LINE
8
BLACK
6
CONTINUOUS
10
42.356
20
-11.4747
11
42.4512
21
-11.5699
0
LINE
8
BLACK
6
CONTINUOUS
10
42.4512
20
-11.5699
11
42.5464
21
-11.7604
0
LINE
8
BLACK
6
CONTINUOUS
10
42.5464
20
-11.7604
11
42.5464
21
-12.3318
0
LINE
8
BLACK
6
CONTINUOUS
10
42.5464
20
-12.3318
11
42.4512
21
-12.5223
0
LINE
8
BLACK
6
CONTINUOUS
10
42.4512
20
-12.5223
11
42.356
21
-12.6175
0
LINE
8
BLACK
6
CONTINUOUS
10
42.356
20
-12.6175
11
42.1655
21
-12.7128
0
LINE
8
BLACK
6
CONTINUOUS
10
42.1655
20
-12.7128
11
41.8798
21
-12.7128
0
LINE
8
BLACK
6
CONTINUOUS
10
43.6893
20
-12.7128
11
43.4988
21
-12.6175
0
LINE
8
BLACK
6
CONTINUOUS
10
43.4988
20
-12.6175
11
43.4036
21
-12.427
0
LINE
8
BLACK
6
CONTINUOUS
10
43.4036
20
-12.427
11
43.4036
21
-10.7128
0
LINE
8
BLACK
6
CONTINUOUS
10
45.2131
20
-12.6175
11
45.0226
21
-12.7128
0
LINE
8
BLACK
6
CONTINUOUS
10
45.0226
20
-12.7128
11
44.6417
21
-12.7128
0
LINE
8
BLACK
6
CONTINUOUS
10
44.6417
20
-12.7128
11
44.4512
21
-12.6175
0
LINE
8
BLACK
6
CONTINUOUS
10
44.4512
20
-12.6175
11
44.356
21
-12.427
0
LINE
8
BLACK
6
CONTINUOUS
10
44.356
20
-12.427
11
44.356
21
-11.6651
0
LINE
8
BLACK
6
CONTINUOUS
10
44.356
20
-11.6651
11
44.4512
21
-11.4747
0
LINE
8
BLACK
6
CONTINUOUS
10
44.4512
20
-11.4747
11
44.6417
21
-11.3794
0
LINE
8
BLACK
6
CONTINUOUS
10
44.6417
20
-11.3794
11
45.0226
21
-11.3794
0
LINE
8
BLACK
6
CONTINUOUS
10
45.0226
20
-11.3794
11
45.2131
21
-11.4747
0
LINE
8
BLACK
6
CONTINUOUS
10
45.2131
20
-11.4747
11
45.3083
21
-11.6651
0
LINE
8
BLACK
6
CONTINUOUS
10
45.3083
20
-11.6651
11
45.3083
21
-11.8556
0
LINE
8
BLACK
6
CONTINUOUS
10
45.3083
20
-11.8556
11
44.356
21
-12.0461
0
LINE
8
BLACK
6
CONTINUOUS
10
46.0702
20
-12.6175
11
46.2607
21
-12.7128
0
LINE
8
BLACK
6
CONTINUOUS
10
46.2607
20
-12.7128
11
46.6417
21
-12.7128
0
LINE
8
BLACK
6
CONTINUOUS
10
46.6417
20
-12.7128
11
46.8321
21
-12.6175
0
LINE
8
BLACK
6
CONTINUOUS
10
46.8321
20
-12.6175
11
46.9274
21
-12.427
0
LINE
8
BLACK
6
CONTINUOUS
10
46.9274
20
-12.427
11
46.9274
21
-12.3318
0
LINE
8
BLACK
6
CONTINUOUS
10
46.9274
20
-12.3318
11
46.8321
21
-12.1413
0
LINE
8
BLACK
6
CONTINUOUS
10
46.8321
20
-12.1413
11
46.6417
21
-12.0461
0
LINE
8
BLACK
6
CONTINUOUS
10
46.6417
20
-12.0461
11
46.356
21
-12.0461
0
LINE
8
BLACK
6
CONTINUOUS
10
46.356
20
-12.0461
11
46.1655
21
-11.9509
0
LINE
8
BLACK
6
CONTINUOUS
10
46.1655
20
-11.9509
11
46.0702
21
-11.7604
0
LINE
8
BLACK
6
CONTINUOUS
10
46.0702
20
-11.7604
11
46.0702
21
-11.6651
0
LINE
8
BLACK
6
CONTINUOUS
10
46.0702
20
-11.6651
11
46.1655
21
-11.4747
0
LINE
8
BLACK
6
CONTINUOUS
10
46.1655
20
-11.4747
11
46.356
21
-11.3794
0
LINE
8
BLACK
6
CONTINUOUS
10
46.356
20
-11.3794
11
46.6417
21
-11.3794
0
LINE
8
BLACK
6
CONTINUOUS
10
46.6417
20
-11.3794
11
46.8321
21
-11.4747
0
LINE
8
BLACK
6
CONTINUOUS
10
47.594
20
-13.4747
11
47.6893
21
-13.3794
0
LINE
8
BLACK
6
CONTINUOUS
10
47.6893
20
-13.3794
11
47.8798
21
-13.0937
0
LINE
8
BLACK
6
CONTINUOUS
10
47.8798
20
-13.0937
11
47.975
21
-12.9032
0
LINE
8
BLACK
6
CONTINUOUS
10
47.975
20
-12.9032
11
48.0702
21
-12.6175
0
LINE
8
BLACK
6
CONTINUOUS
10
48.0702
20
-12.6175
11
48.1655
21
-12.1413
0
LINE
8
BLACK
6
CONTINUOUS
10
48.1655
20
-12.1413
11
48.1655
21
-11.7604
0
LINE
8
BLACK
6
CONTINUOUS
10
48.1655
20
-11.7604
11
48.0702
21
-11.2842
0
LINE
8
BLACK
6
CONTINUOUS
10
48.0702
20
-11.2842
11
47.975
21
-10.9985
0
LINE
8
BLACK
6
CONTINUOUS
10
47.975
20
-10.9985
11
47.8798
21
-10.808
0
LINE
8
BLACK
6
CONTINUOUS
10
47.8798
20
-10.808
11
47.6893
21
-10.5223
0
LINE
8
BLACK
6
CONTINUOUS
10
47.6893
20
-10.5223
11
47.594
21
-10.427
0
LINE
8
BLACK
6
CONTINUOUS
10
-0.417886
20
-15.7151
11
-0.417886
21
-14.3009
0
LINE
8
BLACK
6
CONTINUOUS
10
-0.417886
20
-14.3009
11
-1.83211
21
-14.3009
0
LINE
8
BLACK
6
CONTINUOUS
10
-1.83211
20
-14.3009
11
-1.83211
21
-15.7151
0
LINE
8
BLACK
6
CONTINUOUS
10
-1.83211
20
-15.7151
11
-0.417886
21
-15.7151
0
LINE
8
BLACK
6
CONTINUOUS
10
2.35595
20
-14.1032
11
2.45119
21
-14.008
0
LINE
8
BLACK
6
CONTINUOUS
10
2.45119
20
-14.008
11
2.64167
21
-13.9128
0
LINE
8
BLACK
6
CONTINUOUS
10
2.64167
20
-13.9128
11
3.11786
21
-13.9128
0
LINE
8
BLACK
6
CONTINUOUS
10
3.11786
20
-13.9128
11
3.30833
21
-14.008
0
LINE
8
BLACK
6
CONTINUOUS
10
3.30833
20
-14.008
11
3.40357
21
-14.1032
0
LINE
8
BLACK
6
CONTINUOUS
10
3.40357
20
-14.1032
11
3.49881
21
-14.2937
0
LINE
8
BLACK
6
CONTINUOUS
10
3.49881
20
-14.2937
11
3.49881
21
-14.4842
0
LINE
8
BLACK
6
CONTINUOUS
10
3.49881
20
-14.4842
11
3.40357
21
-14.7699
0
LINE
8
BLACK
6
CONTINUOUS
10
3.40357
20
-14.7699
11
2.26071
21
-15.9128
0
LINE
8
BLACK
6
CONTINUOUS
10
2.26071
20
-15.9128
11
3.49881
21
-15.9128
0
LINE
8
BLACK
6
CONTINUOUS
10
4.35595
20
-15.7223
11
4.45119
21
-15.8175
0
LINE
8
BLACK
6
CONTINUOUS
10
4.45119
20
-15.8175
11
4.35595
21
-15.9128
0
LINE
8
BLACK
6
CONTINUOUS
10
4.35595
20
-15.9128
11
4.26071
21
-15.8175
0
LINE
8
BLACK
6
CONTINUOUS
10
4.26071
20
-15.8175
11
4.35595
21
-15.7223
0
LINE
8
BLACK
6
CONTINUOUS
10
4.35595
20
-15.7223
11
4.35595
21
-15.9128
0
LINE
8
BLACK
6
CONTINUOUS
10
5.2131
20
-14.1032
11
5.30833
21
-14.008
0
LINE
8
BLACK
6
CONTINUOUS
10
5.30833
20
-14.008
11
5.49881
21
-13.9128
0
LINE
8
BLACK
6
CONTINUOUS
10
5.49881
20
-13.9128
11
5.975
21
-13.9128
0
LINE
8
BLACK
6
CONTINUOUS
10
5.975
20
-13.9128
11
6.16548
21
-14.008
0
LINE
8
BLACK
6
CONTINUOUS
10
6.16548
20
-14.008
11
6.26071
21
-14.1032
0
LINE
8
BLACK
6
CONTINUOUS
10
6.26071
20
-14.1032
11
6.35595
21
-14.2937
0
LINE
8
BLACK
6
CONTINUOUS
10
6.35595
20
-14.2937
11
6.35595
21
-14.4842
0
LINE
8
BLACK
6
CONTINUOUS
10
6.35595
20
-14.4842
11
6.26071
21
-14.7699
0
LINE
8
BLACK
6
CONTINUOUS
10
6.26071
20
-14.7699
11
5.11786
21
-15.9128
0
LINE
8
BLACK
6
CONTINUOUS
10
5.11786
20
-15.9128
11
6.35595
21
-15.9128
0
LINE
8
BLACK
6
CONTINUOUS
10
7.59405
20
-13.9128
11
7.78452
21
-13.9128
0
LINE
8
BLACK
6
CONTINUOUS
10
7.78452
20
-13.9128
11
7.975
21
-14.008
0
LINE
8
BLACK
6
CONTINUOUS
10
7.975
20
-14.008
11
8.07024
21
-14.1032
0
LINE
8
BLACK
6
CONTINUOUS
10
8.07024
20
-14.1032
11
8.16548
21
-14.2937
0
LINE
8
BLACK
6
CONTINUOUS
10
8.16548
20
-14.2937
11
8.26071
21
-14.6747
0
LINE
8
BLACK
6
CONTINUOUS
10
8.26071
20
-14.6747
11
8.26071
21
-15.1509
0
LINE
8
BLACK
6
CONTINUOUS
10
8.26071
20
-15.1509
11
8.16548
21
-15.5318
0
LINE
8
BLACK
6
CONTINUOUS
10
8.16548
20
-15.5318
11
8.07024
21
-15.7223
0
LINE
8
BLACK
6
CONTINUOUS
10
8.07024
20
-15.7223
11
7.975
21
-15.8175
0
LINE
8
BLACK
6
CONTINUOUS
10
7.975
20
-15.8175
11
7.78452
21
-15.9128
0
LINE
8
BLACK
6
CONTINUOUS
10
7.78452
20
-15.9128
11
7.59405
21
-15.9128
0
LINE
8
BLACK
6
CONTINUOUS
10
7.59405
20
-15.9128
11
7.40357
21
-15.8175
0
LINE
8
BLACK
6
CONTINUOUS
10
7.40357
20
-15.8175
11
7.30833
21
-15.7223
0
LINE
8
BLACK
6
CONTINUOUS
10
7.30833
20
-15.7223
11
7.2131
21
-15.5318
0
LINE
8
BLACK
6
CONTINUOUS
10
7.2131
20
-15.5318
11
7.11786
21
-15.1509
0
LINE
8
BLACK
6
CONTINUOUS
10
7.11786
20
-15.1509
11
7.11786
21
-14.6747
0
LINE
8
BLACK
6
CONTINUOUS
10
7.11786
20
-14.6747
11
7.2131
21
-14.2937
0
LINE
8
BLACK
6
CONTINUOUS
10
7.2131
20
-14.2937
11
7.30833
21
-14.1032
0
LINE
8
BLACK
6
CONTINUOUS
10
7.30833
20
-14.1032
11
7.40357
21
-14.008
0
LINE
8
BLACK
6
CONTINUOUS
10
7.40357
20
-14.008
11
7.59405
21
-13.9128
0
LINE
8
BLACK
6
CONTINUOUS
10
9.49881
20
-13.9128
11
9.68928
21
-13.9128
0
LINE
8
BLACK
6
CONTINUOUS
10
9.68928
20
-13.9128
11
9.87976
21
-14.008
0
LINE
8
BLACK
6
CONTINUOUS
10
9.87976
20
-14.008
11
9.975
21
-14.1032
0
LINE
8
BLACK
6
CONTINUOUS
10
9.975
20
-14.1032
11
10.0702
21
-14.2937
0
LINE
8
BLACK
6
CONTINUOUS
10
10.0702
20
-14.2937
11
10.1655
21
-14.6747
0
LINE
8
BLACK
6
CONTINUOUS
10
10.1655
20
-14.6747
11
10.1655
21
-15.1509
0
LINE
8
BLACK
6
CONTINUOUS
10
10.1655
20
-15.1509
11
10.0702
21
-15.5318
0
LINE
8
BLACK
6
CONTINUOUS
10
10.0702
20
-15.5318
11
9.975
21
-15.7223
0
LINE
8
BLACK
6
CONTINUOUS
10
9.975
20
-15.7223
11
9.87976
21
-15.8175
0
LINE
8
BLACK
6
CONTINUOUS
10
9.87976
20
-15.8175
11
9.68928
21
-15.9128
0
LINE
8
BLACK
6
CONTINUOUS
10
9.68928
20
-15.9128
11
9.49881
21
-15.9128
0
LINE
8
BLACK
6
CONTINUOUS
10
9.49881
20
-15.9128
11
9.30833
21
-15.8175
0
LINE
8
BLACK
6
CONTINUOUS
10
9.30833
20
-15.8175
11
9.21309
21
-15.7223
0
LINE
8
BLACK
6
CONTINUOUS
10
9.21309
20
-15.7223
11
9.11786
21
-15.5318
0
LINE
8
BLACK
6
CONTINUOUS
10
9.11786
20
-15.5318
11
9.02262
21
-15.1509
0
LINE
8
BLACK
6
CONTINUOUS
10
9.02262
20
-15.1509
11
9.02262
21
-14.6747
0
LINE
8
BLACK
6
CONTINUOUS
10
9.02262
20
-14.6747
11
9.11786
21
-14.2937
0
LINE
8
BLACK
6
CONTINUOUS
10
9.11786
20
-14.2937
11
9.21309
21
-14.1032
0
LINE
8
BLACK
6
CONTINUOUS
10
9.21309
20
-14.1032
11
9.30833
21
-14.008
0
LINE
8
BLACK
6
CONTINUOUS
10
9.30833
20
-14.008
11
9.49881
21
-13.9128
0
LINE
8
BLACK
6
CONTINUOUS
10
11.0226
20
-15.9128
11
11.0226
21
-14.5794
0
LINE
8
BLACK
6
CONTINUOUS
10
11.0226
20
-14.7699
11
11.1179
21
-14.6747
0
LINE
8
BLACK
6
CONTINUOUS
10
11.1179
20
-14.6747
11
11.3083
21
-14.5794
0
LINE
8
BLACK
6
CONTINUOUS
10
11.3083
20
-14.5794
11
11.594
21
-14.5794
0
LINE
8
BLACK
6
CONTINUOUS
10
11.594
20
-14.5794
11
11.7845
21
-14.6747
0
LINE
8
BLACK
6
CONTINUOUS
10
11.7845
20
-14.6747
11
11.8798
21
-14.8651
0
LINE
8
BLACK
6
CONTINUOUS
10
11.8798
20
-14.8651
11
11.8798
21
-15.9128
0
LINE
8
BLACK
6
CONTINUOUS
10
11.8798
20
-14.8651
11
11.975
21
-14.6747
0
LINE
8
BLACK
6
CONTINUOUS
10
11.975
20
-14.6747
11
12.1655
21
-14.5794
0
LINE
8
BLACK
6
CONTINUOUS
10
12.1655
20
-14.5794
11
12.4512
21
-14.5794
0
LINE
8
BLACK
6
CONTINUOUS
10
12.4512
20
-14.5794
11
12.6417
21
-14.6747
0
LINE
8
BLACK
6
CONTINUOUS
10
12.6417
20
-14.6747
11
12.7369
21
-14.8651
0
LINE
8
BLACK
6
CONTINUOUS
10
12.7369
20
-14.8651
11
12.7369
21
-15.9128
0
LINE
8
BLACK
6
CONTINUOUS
10
13.6893
20
-15.9128
11
13.6893
21
-14.5794
0
LINE
8
BLACK
6
CONTINUOUS
10
13.6893
20
-14.7699
11
13.7845
21
-14.6747
0
LINE
8
BLACK
6
CONTINUOUS
10
13.7845
20
-14.6747
11
13.975
21
-14.5794
0
LINE
8
BLACK
6
CONTINUOUS
10
13.975
20
-14.5794
11
14.2607
21
-14.5794
0
LINE
8
BLACK
6
CONTINUOUS
10
14.2607
20
-14.5794
11
14.4512
21
-14.6747
0
LINE
8
BLACK
6
CONTINUOUS
10
14.4512
20
-14.6747
11
14.5464
21
-14.8651
0
LINE
8
BLACK
6
CONTINUOUS
10
14.5464
20
-14.8651
11
14.5464
21
-15.9128
0
LINE
8
BLACK
6
CONTINUOUS
10
14.5464
20
-14.8651
11
14.6417
21
-14.6747
0
LINE
8
BLACK
6
CONTINUOUS
10
14.6417
20
-14.6747
11
14.8321
21
-14.5794
0
LINE
8
BLACK
6
CONTINUOUS
10
14.8321
20
-14.5794
11
15.1179
21
-14.5794
0
LINE
8
BLACK
6
CONTINUOUS
10
15.1179
20
-14.5794
11
15.3083
21
-14.6747
0
LINE
8
BLACK
6
CONTINUOUS
10
15.3083
20
-14.6747
11
15.4036
21
-14.8651
0
LINE
8
BLACK
6
CONTINUOUS
10
15.4036
20
-14.8651
11
15.4036
21
-15.9128
0
LINE
8
BLACK
6
CONTINUOUS
10
19.3083
20
-13.8175
11
17.594
21
-16.389
0
LINE
8
BLACK
6
CONTINUOUS
10
21.8798
20
-13.9128
11
22.0702
21
-13.9128
0
LINE
8
BLACK
6
CONTINUOUS
10
22.0702
20
-13.9128
11
22.2607
21
-14.008
0
LINE
8
BLACK
6
CONTINUOUS
10
22.2607
20
-14.008
11
22.356
21
-14.1032
0
LINE
8
BLACK
6
CONTINUOUS
10
22.356
20
-14.1032
11
22.4512
21
-14.2937
0
LINE
8
BLACK
6
CONTINUOUS
10
22.4512
20
-14.2937
11
22.5464
21
-14.6747
0
LINE
8
BLACK
6
CONTINUOUS
10
22.5464
20
-14.6747
11
22.5464
21
-15.1509
0
LINE
8
BLACK
6
CONTINUOUS
10
22.5464
20
-15.1509
11
22.4512
21
-15.5318
0
LINE
8
BLACK
6
CONTINUOUS
10
22.4512
20
-15.5318
11
22.356
21
-15.7223
0
LINE
8
BLACK
6
CONTINUOUS
10
22.356
20
-15.7223
11
22.2607
21
-15.8175
0
LINE
8
BLACK
6
CONTINUOUS
10
22.2607
20
-15.8175
11
22.0702
21
-15.9128
0
LINE
8
BLACK
6
CONTINUOUS
10
22.0702
20
-15.9128
11
21.8798
21
-15.9128
0
LINE
8
BLACK
6
CONTINUOUS
10
21.8798
20
-15.9128
11
21.6893
21
-15.8175
0
LINE
8
BLACK
6
CONTINUOUS
10
21.6893
20
-15.8175
11
21.594
21
-15.7223
0
LINE
8
BLACK
6
CONTINUOUS
10
21.594
20
-15.7223
11
21.4988
21
-15.5318
0
LINE
8
BLACK
6
CONTINUOUS
10
21.4988
20
-15.5318
11
21.4036
21
-15.1509
0
LINE
8
BLACK
6
CONTINUOUS
10
21.4036
20
-15.1509
11
21.4036
21
-14.6747
0
LINE
8
BLACK
6
CONTINUOUS
10
21.4036
20
-14.6747
11
21.4988
21
-14.2937
0
LINE
8
BLACK
6
CONTINUOUS
10
21.4988
20
-14.2937
11
21.594
21
-14.1032
0
LINE
8
BLACK
6
CONTINUOUS
10
21.594
20
-14.1032
11
21.6893
21
-14.008
0
LINE
8
BLACK
6
CONTINUOUS
10
21.6893
20
-14.008
11
21.8798
21
-13.9128
0
LINE
8
BLACK
6
CONTINUOUS
10
23.4036
20
-15.7223
11
23.4988
21
-15.8175
0
LINE
8
BLACK
6
CONTINUOUS
10
23.4988
20
-15.8175
11
23.4036
21
-15.9128
0
LINE
8
BLACK
6
CONTINUOUS
10
23.4036
20
-15.9128
11
23.3083
21
-15.8175
0
LINE
8
BLACK
6
CONTINUOUS
10
23.3083
20
-15.8175
11
23.4036
21
-15.7223
0
LINE
8
BLACK
6
CONTINUOUS
10
23.4036
20
-15.7223
11
23.4036
21
-15.9128
0
LINE
8
BLACK
6
CONTINUOUS
10
24.7369
20
-13.9128
11
24.9274
21
-13.9128
0
LINE
8
BLACK
6
CONTINUOUS
10
24.9274
20
-13.9128
11
25.1179
21
-14.008
0
LINE
8
BLACK
6
CONTINUOUS
10
25.1179
20
-14.008
11
25.2131
21
-14.1032
0
LINE
8
BLACK
6
CONTINUOUS
10
25.2131
20
-14.1032
11
25.3083
21
-14.2937
0
LINE
8
BLACK
6
CONTINUOUS
10
25.3083
20
-14.2937
11
25.4036
21
-14.6747
0
LINE
8
BLACK
6
CONTINUOUS
10
25.4036
20
-14.6747
11
25.4036
21
-15.1509
0
LINE
8
BLACK
6
CONTINUOUS
10
25.4036
20
-15.1509
11
25.3083
21
-15.5318
0
LINE
8
BLACK
6
CONTINUOUS
10
25.3083
20
-15.5318
11
25.2131
21
-15.7223
0
LINE
8
BLACK
6
CONTINUOUS
10
25.2131
20
-15.7223
11
25.1179
21
-15.8175
0
LINE
8
BLACK
6
CONTINUOUS
10
25.1179
20
-15.8175
11
24.9274
21
-15.9128
0
LINE
8
BLACK
6
CONTINUOUS
10
24.9274
20
-15.9128
11
24.7369
21
-15.9128
0
LINE
8
BLACK
6
CONTINUOUS
10
24.7369
20
-15.9128
11
24.5464
21
-15.8175
0
LINE
8
BLACK
6
CONTINUOUS
10
24.5464
20
-15.8175
11
24.4512
21
-15.7223
0
LINE
8
BLACK
6
CONTINUOUS
10
24.4512
20
-15.7223
11
24.356
21
-15.5318
0
LINE
8
BLACK
6
CONTINUOUS
10
24.356
20
-15.5318
11
24.2607
21
-15.1509
0
LINE
8
BLACK
6
CONTINUOUS
10
24.2607
20
-15.1509
11
24.2607
21
-14.6747
0
LINE
8
BLACK
6
CONTINUOUS
10
24.2607
20
-14.6747
11
24.356
21
-14.2937
0
LINE
8
BLACK
6
CONTINUOUS
10
24.356
20
-14.2937
11
24.4512
21
-14.1032
0
LINE
8
BLACK
6
CONTINUOUS
10
24.4512
20
-14.1032
11
24.5464
21
-14.008
0
LINE
8
BLACK
6
CONTINUOUS
10
24.5464
20
-14.008
11
24.7369
21
-13.9128
0
LINE
8
BLACK
6
CONTINUOUS
10
26.5464
20
-14.7699
11
26.356
21
-14.6747
0
LINE
8
BLACK
6
CONTINUOUS
10
26.356
20
-14.6747
11
26.2607
21
-14.5794
0
LINE
8
BLACK
6
CONTINUOUS
10
26.2607
20
-14.5794
11
26.1655
21
-14.389
0
LINE
8
BLACK
6
CONTINUOUS
10
26.1655
20
-14.389
11
26.1655
21
-14.2937
0
LINE
8
BLACK
6
CONTINUOUS
10
26.1655
20
-14.2937
11
26.2607
21
-14.1032
0
LINE
8
BLACK
6
CONTINUOUS
10
26.2607
20
-14.1032
11
26.356
21
-14.008
0
LINE
8
BLACK
6
CONTINUOUS
10
26.356
20
-14.008
11
26.5464
21
-13.9128
0
LINE
8
BLACK
6
CONTINUOUS
10
26.5464
20
-13.9128
11
26.9274
21
-13.9128
0
LINE
8
BLACK
6
CONTINUOUS
10
26.9274
20
-13.9128
11
27.1179
21
-14.008
0
LINE
8
BLACK
6
CONTINUOUS
10
27.1179
20
-14.008
11
27.2131
21
-14.1032
0
LINE
8
BLACK
6
CONTINUOUS
10
27.2131
20
-14.1032
11
27.3083
21
-14.2937
0
LINE
8
BLACK
6
CONTINUOUS
10
27.3083
20
-14.2937
11
27.3083
21
-14.389
0
LINE
8
BLACK
6
CONTINUOUS
10
27.3083
20
-14.389
11
27.2131
21
-14.5794
0
LINE
8
BLACK
6
CONTINUOUS
10
27.2131
20
-14.5794
11
27.1179
21
-14.6747
0
LINE
8
BLACK
6
CONTINUOUS
10
27.1179
20
-14.6747
11
26.9274
21
-14.7699
0
LINE
8
BLACK
6
CONTINUOUS
10
26.9274
20
-14.7699
11
26.5464
21
-14.7699
0
LINE
8
BLACK
6
CONTINUOUS
10
26.5464
20
-14.7699
11
26.356
21
-14.8651
0
LINE
8
BLACK
6
CONTINUOUS
10
26.356
20
-14.8651
11
26.2607
21
-14.9604
0
LINE
8
BLACK
6
CONTINUOUS
10
26.2607
20
-14.9604
11
26.1655
21
-15.1509
0
LINE
8
BLACK
6
CONTINUOUS
10
26.1655
20
-15.1509
11
26.1655
21
-15.5318
0
LINE
8
BLACK
6
CONTINUOUS
10
26.1655
20
-15.5318
11
26.2607
21
-15.7223
0
LINE
8
BLACK
6
CONTINUOUS
10
26.2607
20
-15.7223
11
26.356
21
-15.8175
0
LINE
8
BLACK
6
CONTINUOUS
10
26.356
20
-15.8175
11
26.5464
21
-15.9128
0
LINE
8
BLACK
6
CONTINUOUS
10
26.5464
20
-15.9128
11
26.9274
21
-15.9128
0
LINE
8
BLACK
6
CONTINUOUS
10
26.9274
20
-15.9128
11
27.1179
21
-15.8175
0
LINE
8
BLACK
6
CONTINUOUS
10
27.1179
20
-15.8175
11
27.2131
21
-15.7223
0
LINE
8
BLACK
6
CONTINUOUS
10
27.2131
20
-15.7223
11
27.3083
21
-15.5318
0
LINE
8
BLACK
6
CONTINUOUS
10
27.3083
20
-15.5318
11
27.3083
21
-15.1509
0
LINE
8
BLACK
6
CONTINUOUS
10
27.3083
20
-15.1509
11
27.2131
21
-14.9604
0
LINE
8
BLACK
6
CONTINUOUS
10
27.2131
20
-14.9604
11
27.1179
21
-14.8651
0
LINE
8
BLACK
6
CONTINUOUS
10
27.1179
20
-14.8651
11
26.9274
21
-14.7699
0
LINE
8
BLACK
6
CONTINUOUS
10
29.0226
20
-13.9128
11
28.6417
21
-13.9128
0
LINE
8
BLACK
6
CONTINUOUS
10
28.6417
20
-13.9128
11
28.4512
21
-14.008
0
LINE
8
BLACK
6
CONTINUOUS
10
28.4512
20
-14.008
11
28.356
21
-14.1032
0
LINE
8
BLACK
6
CONTINUOUS
10
28.356
20
-14.1032
11
28.1655
21
-14.389
0
LINE
8
BLACK
6
CONTINUOUS
10
28.1655
20
-14.389
11
28.0702
21
-14.7699
0
LINE
8
BLACK
6
CONTINUOUS
10
28.0702
20
-14.7699
11
28.0702
21
-15.5318
0
LINE
8
BLACK
6
CONTINUOUS
10
28.0702
20
-15.5318
11
28.1655
21
-15.7223
0
LINE
8
BLACK
6
CONTINUOUS
10
28.1655
20
-15.7223
11
28.2607
21
-15.8175
0
LINE
8
BLACK
6
CONTINUOUS
10
28.2607
20
-15.8175
11
28.4512
21
-15.9128
0
LINE
8
BLACK
6
CONTINUOUS
10
28.4512
20
-15.9128
11
28.8321
21
-15.9128
0
LINE
8
BLACK
6
CONTINUOUS
10
28.8321
20
-15.9128
11
29.0226
21
-15.8175
0
LINE
8
BLACK
6
CONTINUOUS
10
29.0226
20
-15.8175
11
29.1179
21
-15.7223
0
LINE
8
BLACK
6
CONTINUOUS
10
29.1179
20
-15.7223
11
29.2131
21
-15.5318
0
LINE
8
BLACK
6
CONTINUOUS
10
29.2131
20
-15.5318
11
29.2131
21
-15.0556
0
LINE
8
BLACK
6
CONTINUOUS
10
29.2131
20
-15.0556
11
29.1179
21
-14.8651
0
LINE
8
BLACK
6
CONTINUOUS
10
29.1179
20
-14.8651
11
29.0226
21
-14.7699
0
LINE
8
BLACK
6
CONTINUOUS
10
29.0226
20
-14.7699
11
28.8321
21
-14.6747
0
LINE
8
BLACK
6
CONTINUOUS
10
28.8321
20
-14.6747
11
28.4512
21
-14.6747
0
LINE
8
BLACK
6
CONTINUOUS
10
28.4512
20
-14.6747
11
28.2607
21
-14.7699
0
LINE
8
BLACK
6
CONTINUOUS
10
28.2607
20
-14.7699
11
28.1655
21
-14.8651
0
LINE
8
BLACK
6
CONTINUOUS
10
28.1655
20
-14.8651
11
28.0702
21
-15.0556
0
LINE
8
BLACK
6
CONTINUOUS
10
30.9274
20
-13.9128
11
30.5464
21
-13.9128
0
LINE
8
BLACK
6
CONTINUOUS
10
30.5464
20
-13.9128
11
30.356
21
-14.008
0
LINE
8
BLACK
6
CONTINUOUS
10
30.356
20
-14.008
11
30.2607
21
-14.1032
0
LINE
8
BLACK
6
CONTINUOUS
10
30.2607
20
-14.1032
11
30.0702
21
-14.389
0
LINE
8
BLACK
6
CONTINUOUS
10
30.0702
20
-14.389
11
29.975
21
-14.7699
0
LINE
8
BLACK
6
CONTINUOUS
10
29.975
20
-14.7699
11
29.975
21
-15.5318
0
LINE
8
BLACK
6
CONTINUOUS
10
29.975
20
-15.5318
11
30.0702
21
-15.7223
0
LINE
8
BLACK
6
CONTINUOUS
10
30.0702
20
-15.7223
11
30.1655
21
-15.8175
0
LINE
8
BLACK
6
CONTINUOUS
10
30.1655
20
-15.8175
11
30.356
21
-15.9128
0
LINE
8
BLACK
6
CONTINUOUS
10
30.356
20
-15.9128
11
30.7369
21
-15.9128
0
LINE
8
BLACK
6
CONTINUOUS
10
30.7369
20
-15.9128
11
30.9274
21
-15.8175
0
LINE
8
BLACK
6
CONTINUOUS
10
30.9274
20
-15.8175
11
31.0226
21
-15.7223
0
LINE
8
BLACK
6
CONTINUOUS
10
31.0226
20
-15.7223
11
31.1179
21
-15.5318
0
LINE
8
BLACK
6
CONTINUOUS
10
31.1179
20
-15.5318
11
31.1179
21
-15.0556
0
LINE
8
BLACK
6
CONTINUOUS
10
31.1179
20
-15.0556
11
31.0226
21
-14.8651
0
LINE
8
BLACK
6
CONTINUOUS
10
31.0226
20
-14.8651
11
30.9274
21
-14.7699
0
LINE
8
BLACK
6
CONTINUOUS
10
30.9274
20
-14.7699
11
30.7369
21
-14.6747
0
LINE
8
BLACK
6
CONTINUOUS
10
30.7369
20
-14.6747
11
30.356
21
-14.6747
0
LINE
8
BLACK
6
CONTINUOUS
10
30.356
20
-14.6747
11
30.1655
21
-14.7699
0
LINE
8
BLACK
6
CONTINUOUS
10
30.1655
20
-14.7699
11
30.0702
21
-14.8651
0
LINE
8
BLACK
6
CONTINUOUS
10
30.0702
20
-14.8651
11
29.975
21
-15.0556
0
LINE
8
BLACK
6
CONTINUOUS
10
31.8798
20
-13.9128
11
31.8798
21
-14.2937
0
LINE
8
BLACK
6
CONTINUOUS
10
32.6417
20
-13.9128
11
32.6417
21
-14.2937
0
LINE
8
BLACK
6
CONTINUOUS
10
35.594
20
-16.6747
11
35.4988
21
-16.5794
0
LINE
8
BLACK
6
CONTINUOUS
10
35.4988
20
-16.5794
11
35.3083
21
-16.2937
0
LINE
8
BLACK
6
CONTINUOUS
10
35.3083
20
-16.2937
11
35.2131
21
-16.1032
0
LINE
8
BLACK
6
CONTINUOUS
10
35.2131
20
-16.1032
11
35.1179
21
-15.8175
0
LINE
8
BLACK
6
CONTINUOUS
10
35.1179
20
-15.8175
11
35.0226
21
-15.3413
0
LINE
8
BLACK
6
CONTINUOUS
10
35.0226
20
-15.3413
11
35.0226
21
-14.9604
0
LINE
8
BLACK
6
CONTINUOUS
10
35.0226
20
-14.9604
11
35.1179
21
-14.4842
0
LINE
8
BLACK
6
CONTINUOUS
10
35.1179
20
-14.4842
11
35.2131
21
-14.1985
0
LINE
8
BLACK
6
CONTINUOUS
10
35.2131
20
-14.1985
11
35.3083
21
-14.008
0
LINE
8
BLACK
6
CONTINUOUS
10
35.3083
20
-14.008
11
35.4988
21
-13.7223
0
LINE
8
BLACK
6
CONTINUOUS
10
35.4988
20
-13.7223
11
35.594
21
-13.627
0
LINE
8
BLACK
6
CONTINUOUS
10
36.2607
20
-14.1032
11
36.356
21
-14.008
0
LINE
8
BLACK
6
CONTINUOUS
10
36.356
20
-14.008
11
36.5464
21
-13.9128
0
LINE
8
BLACK
6
CONTINUOUS
10
36.5464
20
-13.9128
11
37.0226
21
-13.9128
0
LINE
8
BLACK
6
CONTINUOUS
10
37.0226
20
-13.9128
11
37.2131
21
-14.008
0
LINE
8
BLACK
6
CONTINUOUS
10
37.2131
20
-14.008
11
37.3083
21
-14.1032
0
LINE
8
BLACK
6
CONTINUOUS
10
37.3083
20
-14.1032
11
37.4036
21
-14.2937
0
LINE
8
BLACK
6
CONTINUOUS
10
37.4036
20
-14.2937
11
37.4036
21
-14.4842
0
LINE
8
BLACK
6
CONTINUOUS
10
37.4036
20
-14.4842
11
37.3083
21
-14.7699
0
LINE
8
BLACK
6
CONTINUOUS
10
37.3083
20
-14.7699
11
36.1655
21
-15.9128
0
LINE
8
BLACK
6
CONTINUOUS
10
36.1655
20
-15.9128
11
37.4036
21
-15.9128
0
LINE
8
BLACK
6
CONTINUOUS
10
39.7845
20
-15.9128
11
39.7845
21
-13.9128
0
LINE
8
BLACK
6
CONTINUOUS
10
40.6417
20
-15.9128
11
40.6417
21
-14.8651
0
LINE
8
BLACK
6
CONTINUOUS
10
40.6417
20
-14.8651
11
40.5464
21
-14.6747
0
LINE
8
BLACK
6
CONTINUOUS
10
40.5464
20
-14.6747
11
40.356
21
-14.5794
0
LINE
8
BLACK
6
CONTINUOUS
10
40.356
20
-14.5794
11
40.0702
21
-14.5794
0
LINE
8
BLACK
6
CONTINUOUS
10
40.0702
20
-14.5794
11
39.8798
21
-14.6747
0
LINE
8
BLACK
6
CONTINUOUS
10
39.8798
20
-14.6747
11
39.7845
21
-14.7699
0
LINE
8
BLACK
6
CONTINUOUS
10
41.8798
20
-15.9128
11
41.6893
21
-15.8175
0
LINE
8
BLACK
6
CONTINUOUS
10
41.6893
20
-15.8175
11
41.594
21
-15.7223
0
LINE
8
BLACK
6
CONTINUOUS
10
41.594
20
-15.7223
11
41.4988
21
-15.5318
0
LINE
8
BLACK
6
CONTINUOUS
10
41.4988
20
-15.5318
11
41.4988
21
-14.9604
0
LINE
8
BLACK
6
CONTINUOUS
10
41.4988
20
-14.9604
11
41.594
21
-14.7699
0
LINE
8
BLACK
6
CONTINUOUS
10
41.594
20
-14.7699
11
41.6893
21
-14.6747
0
LINE
8
BLACK
6
CONTINUOUS
10
41.6893
20
-14.6747
11
41.8798
21
-14.5794
0
LINE
8
BLACK
6
CONTINUOUS
10
41.8798
20
-14.5794
11
42.1655
21
-14.5794
0
LINE
8
BLACK
6
CONTINUOUS
10
42.1655
20
-14.5794
11
42.356
21
-14.6747
0
LINE
8
BLACK
6
CONTINUOUS
10
42.356
20
-14.6747
11
42.4512
21
-14.7699
0
LINE
8
BLACK
6
CONTINUOUS
10
42.4512
20
-14.7699
11
42.5464
21
-14.9604
0
LINE
8
BLACK
6
CONTINUOUS
10
42.5464
20
-14.9604
11
42.5464
21
-15.5318
0
LINE
8
BLACK
6
CONTINUOUS
10
42.5464
20
-15.5318
11
42.4512
21
-15.7223
0
LINE
8
BLACK
6
CONTINUOUS
10
42.4512
20
-15.7223
11
42.356
21
-15.8175
0
LINE
8
BLACK
6
CONTINUOUS
10
42.356
20
-15.8175
11
42.1655
21
-15.9128
0
LINE
8
BLACK
6
CONTINUOUS
10
42.1655
20
-15.9128
11
41.8798
21
-15.9128
0
LINE
8
BLACK
6
CONTINUOUS
10
43.6893
20
-15.9128
11
43.4988
21
-15.8175
0
LINE
8
BLACK
6
CONTINUOUS
10
43.4988
20
-15.8175
11
43.4036
21
-15.627
0
LINE
8
BLACK
6
CONTINUOUS
10
43.4036
20
-15.627
11
43.4036
21
-13.9128
0
LINE
8
BLACK
6
CONTINUOUS
10
45.2131
20
-15.8175
11
45.0226
21
-15.9128
0
LINE
8
BLACK
6
CONTINUOUS
10
45.0226
20
-15.9128
11
44.6417
21
-15.9128
0
LINE
8
BLACK
6
CONTINUOUS
10
44.6417
20
-15.9128
11
44.4512
21
-15.8175
0
LINE
8
BLACK
6
CONTINUOUS
10
44.4512
20
-15.8175
11
44.356
21
-15.627
0
LINE
8
BLACK
6
CONTINUOUS
10
44.356
20
-15.627
11
44.356
21
-14.8651
0
LINE
8
BLACK
6
CONTINUOUS
10
44.356
20
-14.8651
11
44.4512
21
-14.6747
0
LINE
8
BLACK
6
CONTINUOUS
10
44.4512
20
-14.6747
11
44.6417
21
-14.5794
0
LINE
8
BLACK
6
CONTINUOUS
10
44.6417
20
-14.5794
11
45.0226
21
-14.5794
0
LINE
8
BLACK
6
CONTINUOUS
10
45.0226
20
-14.5794
11
45.2131
21
-14.6747
0
LINE
8
BLACK
6
CONTINUOUS
10
45.2131
20
-14.6747
11
45.3083
21
-14.8651
0
LINE
8
BLACK
6
CONTINUOUS
10
45.3083
20
-14.8651
11
45.3083
21
-15.0556
0
LINE
8
BLACK
6
CONTINUOUS
10
45.3083
20
-15.0556
11
44.356
21
-15.2461
0
LINE
8
BLACK
6
CONTINUOUS
10
46.0702
20
-15.8175
11
46.2607
21
-15.9128
0
LINE
8
BLACK
6
CONTINUOUS
10
46.2607
20
-15.9128
11
46.6417
21
-15.9128
0
LINE
8
BLACK
6
CONTINUOUS
10
46.6417
20
-15.9128
11
46.8321
21
-15.8175
0
LINE
8
BLACK
6
CONTINUOUS
10
46.8321
20
-15.8175
11
46.9274
21
-15.627
0
LINE
8
BLACK
6
CONTINUOUS
10
46.9274
20
-15.627
11
46.9274
21
-15.5318
0
LINE
8
BLACK
6
CONTINUOUS
10
46.9274
20
-15.5318
11
46.8321
21
-15.3413
0
LINE
8
BLACK
6
CONTINUOUS
10
46.8321
20
-15.3413
11
46.6417
21
-15.2461
0
LINE
8
BLACK
6
CONTINUOUS
10
46.6417
20
-15.2461
11
46.356
21
-15.2461
0
LINE
8
BLACK
6
CONTINUOUS
10
46.356
20
-15.2461
11
46.1655
21
-15.1509
0
LINE
8
BLACK
6
CONTINUOUS
10
46.1655
20
-15.1509
11
46.0702
21
-14.9604
0
LINE
8
BLACK
6
CONTINUOUS
10
46.0702
20
-14.9604
11
46.0702
21
-14.8651
0
LINE
8
BLACK
6
CONTINUOUS
10
46.0702
20
-14.8651
11
46.1655
21
-14.6747
0
LINE
8
BLACK
6
CONTINUOUS
10
46.1655
20
-14.6747
11
46.356
21
-14.5794
0
LINE
8
BLACK
6
CONTINUOUS
10
46.356
20
-14.5794
11
46.6417
21
-14.5794
0
LINE
8
BLACK
6
CONTINUOUS
10
46.6417
20
-14.5794
11
46.8321
21
-14.6747
0
LINE
8
BLACK
6
CONTINUOUS
10
47.594
20
-16.6747
11
47.6893
21
-16.5794
0
LINE
8
BLACK
6
CONTINUOUS
10
47.6893
20
-16.5794
11
47.8798
21
-16.2937
0
LINE
8
BLACK
6
CONTINUOUS
10
47.8798
20
-16.2937
11
47.975
21
-16.1032
0
LINE
8
BLACK
6
CONTINUOUS
10
47.975
20
-16.1032
11
48.0702
21
-15.8175
0
LINE
8
BLACK
6
CONTINUOUS
10
48.0702
20
-15.8175
11
48.1655
21
-15.3413
0
LINE
8
BLACK
6
CONTINUOUS
10
48.1655
20
-15.3413
11
48.1655
21
-14.9604
0
LINE
8
BLACK
6
CONTINUOUS
10
48.1655
20
-14.9604
11
48.0702
21
-14.4842
0
LINE
8
BLACK
6
CONTINUOUS
10
48.0702
20
-14.4842
11
47.975
21
-14.1985
0
LINE
8
BLACK
6
CONTINUOUS
10
47.975
20
-14.1985
11
47.8798
21
-14.008
0
LINE
8
BLACK
6
CONTINUOUS
10
47.8798
20
-14.008
11
47.6893
21
-13.7223
0
LINE
8
BLACK
6
CONTINUOUS
10
47.6893
20
-13.7223
11
47.594
21
-13.627
  0
ENDSEC
  0
EOF
